<?xml version="1.0" encoding="utf-8"?>
<COLLADA xmlns="http://www.collada.org/2005/11/COLLADASchema" version="1.4.1" xmlns:xsi="http://www.w3.org/2001/XMLSchema-instance">
  <asset>
    <contributor>
      <author>Blender User</author>
      <authoring_tool>Blender 4.0.2 commit date:2023-12-05, commit time:07:41, hash:9be62e85b727</authoring_tool>
    </contributor>
    <created>2024-11-17T22:15:02</created>
    <modified>2024-11-17T22:15:02</modified>
    <unit name="meter" meter="1"/>
    <up_axis>Z_UP</up_axis>
  </asset>
  <library_cameras>
    <camera id="Camera-camera" name="Camera">
      <optics>
        <technique_common>
          <perspective>
            <xfov sid="xfov">39.59775</xfov>
            <aspect_ratio>1.777778</aspect_ratio>
            <znear sid="znear">0.1</znear>
            <zfar sid="zfar">100</zfar>
          </perspective>
        </technique_common>
      </optics>
      <extra>
        <technique profile="blender">
          <shiftx sid="shiftx" type="float">0</shiftx>
          <shifty sid="shifty" type="float">0</shifty>
          <dof_distance sid="dof_distance" type="float">10</dof_distance>
        </technique>
      </extra>
    </camera>
  </library_cameras>
  <library_lights>
    <light id="Light-light" name="Light">
      <technique_common>
        <point>
          <color sid="color">1000 1000 1000</color>
          <constant_attenuation>1</constant_attenuation>
          <linear_attenuation>0</linear_attenuation>
          <quadratic_attenuation>0</quadratic_attenuation>
        </point>
      </technique_common>
      <extra>
        <technique profile="blender">
          <type sid="type" type="int">0</type>
          <flag sid="flag" type="int">0</flag>
          <mode sid="mode" type="int">1</mode>
          <red sid="red" type="float">1</red>
          <green sid="green" type="float">1</green>
          <blue sid="blue" type="float">1</blue>
          <shadow_r sid="blender_shadow_r" type="float">0</shadow_r>
          <shadow_g sid="blender_shadow_g" type="float">0</shadow_g>
          <shadow_b sid="blender_shadow_b" type="float">0</shadow_b>
          <energy sid="blender_energy" type="float">1000</energy>
          <spotsize sid="spotsize" type="float">75</spotsize>
          <spotblend sid="spotblend" type="float">0.15</spotblend>
          <clipsta sid="clipsta" type="float">0.04999995</clipsta>
          <clipend sid="clipend" type="float">30.002</clipend>
          <bias sid="bias" type="float">1</bias>
          <radius sid="radius" type="float">0.1</radius>
          <area_shape sid="area_shape" type="int">1</area_shape>
          <area_size sid="area_size" type="float">0.1</area_size>
          <area_sizey sid="area_sizey" type="float">0.1</area_sizey>
          <area_sizez sid="area_sizez" type="float">1</area_sizez>
        </technique>
      </extra>
    </light>
  </library_lights>
  <library_effects>
    <effect id="Material_001-effect">
      <profile_COMMON>
        <technique sid="common">
          <lambert>
            <emission>
              <color sid="emission">0 0 0 1</color>
            </emission>
            <diffuse>
              <color sid="diffuse">0.0607556 0.0607556 0.0607556 1</color>
            </diffuse>
            <reflectivity>
              <float sid="specular">0.5</float>
            </reflectivity>
          </lambert>
        </technique>
      </profile_COMMON>
    </effect>
  </library_effects>
  <library_images/>
  <library_materials>
    <material id="Material_001-material" name="Material.001">
      <instance_effect url="#Material_001-effect"/>
    </material>
  </library_materials>
  <library_geometries>
    <geometry id="vim4_module-mesh" name="vim4_module">
      <mesh>
        <source id="vim4_module-mesh-positions">
          <float_array id="vim4_module-mesh-positions-array" count="3174">18.51893 28.2391 10.2 18.51893 27.2391 10.2 19.51893 28.2391 10.2 19.51893 27.2391 10.2 19.51893 27.2391 2.2 18.51893 27.2391 2.2 18.51893 28.2391 2.2 19.51893 28.2391 2.2 22.01893 28.2391 10.2 22.01893 27.2391 10.2 23.01893 28.2391 10.2 23.01893 27.2391 10.2 23.01893 27.2391 2.2 22.01893 27.2391 2.2 22.01893 28.2391 2.2 23.01893 28.2391 2.2 22.01893 24.7391 10.2 22.01893 23.7391 10.2 23.01893 24.7391 10.2 23.01893 23.7391 10.2 23.61699 23.61982 2.2 22.01893 23.7391 2.2 22.01893 24.7391 2.2 23.01893 24.7391 2.2 18.51893 24.7391 10.2 18.51893 23.7391 10.2 19.51893 24.40576 10.2 19.51893 23.7391 2.2 18.51893 23.7391 2.2 18.51893 24.7391 2.2 19.51893 24.7391 2.2 12.41893 28.2391 10.2 12.41893 27.2391 10.2 13.41893 28.2391 10.2 13.41893 27.2391 10.2 13.41893 27.2391 2.2 12.41893 27.2391 2.2 12.41893 28.2391 2.2 13.41893 28.2391 2.2 15.91893 28.2391 10.2 15.91893 27.2391 10.2 16.91893 28.2391 10.2 16.91893 27.2391 10.2 16.91893 27.2391 2.2 15.91893 27.2391 2.2 15.91893 28.2391 2.2 16.91893 28.2391 2.2 15.91893 24.7391 10.2 15.91893 23.7391 10.2 16.91893 24.7391 10.2 16.91893 23.7391 10.2 16.91893 23.7391 2.2 15.91893 23.7391 2.2 15.91893 24.7391 2.2 16.91893 24.7391 2.2 12.41893 24.7391 10.2 12.41893 23.7391 10.2 13.41893 24.7391 10.2 13.41893 23.7391 10.2 13.41893 23.7391 2.2 12.41893 23.7391 2.2 12.41893 24.7391 2.2 13.41893 24.7391 2.2 6.318928 28.2391 10.2 6.318928 27.2391 10.2 7.318927 28.2391 10.2 7.318927 27.2391 10.2 7.318927 27.2391 2.2 6.318928 27.2391 2.2 6.318928 28.2391 2.2 7.318927 28.2391 2.2 9.818928 28.2391 10.2 9.818928 27.2391 10.2 10.81893 28.2391 10.2 10.81893 27.2391 10.2 10.81893 27.2391 2.2 9.818928 27.2391 2.2 9.818928 28.2391 2.2 10.81893 28.2391 2.2 9.818928 24.7391 10.2 9.818928 23.7391 10.2 10.81893 24.7391 10.2 10.81893 23.7391 10.2 10.81893 23.7391 2.2 9.818928 23.7391 2.2 9.818928 24.7391 2.2 10.81893 24.7391 2.2 6.318928 24.7391 10.2 6.318928 23.7391 10.2 7.318927 24.40576 10.2 7.318927 23.7391 2.2 6.318928 23.7391 2.2 6.318928 24.7391 2.2 7.318927 24.7391 2.2 0.2189276 28.2391 10.2 0.2189276 27.2391 10.2 1.218928 28.2391 10.2 1.218928 27.2391 10.2 1.218928 27.2391 2.2 0.2189276 27.2391 2.2 0.2189276 28.2391 2.2 1.218928 28.2391 2.2 3.718928 28.2391 10.2 3.718928 27.2391 10.2 4.718928 28.2391 10.2 4.718928 27.2391 10.2 4.718928 27.2391 2.2 3.718928 27.2391 2.2 3.718928 28.2391 2.2 4.718928 28.2391 2.2 3.718928 24.7391 10.2 3.718928 23.7391 10.2 4.718928 24.7391 10.2 4.718928 23.7391 10.2 4.718928 23.7391 2.2 3.718928 23.7391 2.2 3.718928 24.7391 2.2 4.718928 24.7391 2.2 0.2189276 24.7391 10.2 0.2189276 23.7391 10.2 1.218928 24.40576 10.2 1.218928 23.7391 2.2 0.2189276 23.7391 2.2 0.2189276 24.7391 2.2 1.218928 24.7391 2.2 -5.881072 28.2391 10.2 -5.881072 27.2391 10.2 -4.881072 28.2391 10.2 -4.881072 27.2391 10.2 -4.881072 27.2391 2.2 -5.881072 27.2391 2.2 -5.881072 28.2391 2.2 -4.881072 28.2391 2.2 -2.381072 28.2391 10.2 -2.381072 27.2391 10.2 -1.381072 28.2391 10.2 -1.381072 27.2391 10.2 -1.381072 27.2391 2.2 -2.381072 27.2391 2.2 -2.381072 28.2391 2.2 -1.381072 28.2391 2.2 -2.381072 24.07243 10.2 -1.381072 24.7391 10.2 -1.381072 23.7391 10.2 -1.381072 23.7391 2.2 -2.381072 23.7391 2.2 -2.381072 24.7391 2.2 -1.381072 24.7391 2.2 -5.881072 24.7391 10.2 -5.881072 23.7391 10.2 -4.881072 24.40576 10.2 -4.881072 23.7391 2.2 -5.881072 23.7391 2.2 -5.881072 24.7391 2.2 -4.881072 24.7391 2.2 -11.64774 28.2391 10.2 -11.98107 27.2391 10.2 -10.98107 27.2391 10.2 -10.98107 27.2391 2.2 -11.98107 27.2391 2.2 -11.98107 28.2391 2.2 -10.98107 28.2391 2.2 -8.481073 28.2391 10.2 -8.481073 27.2391 10.2 -7.481072 28.2391 10.2 -7.481072 27.2391 10.2 -7.481072 27.2391 2.2 -8.481073 27.2391 2.2 -8.481073 28.2391 2.2 -7.481072 28.2391 2.2 -8.481073 24.7391 10.2 -8.481073 23.7391 10.2 -7.481072 24.7391 10.2 -7.481072 23.7391 10.2 -7.481072 23.7391 2.2 -8.481073 23.7391 2.2 -8.481073 24.7391 2.2 -7.481072 24.7391 2.2 -11.98107 24.7391 10.2 -11.98107 23.7391 10.2 -10.98107 24.40576 10.2 -10.98107 23.7391 2.2 -11.98107 24.40576 2.2 -10.98107 24.7391 2.2 -18.08107 28.2391 10.2 -18.08107 27.2391 10.2 -17.08107 28.2391 10.2 -17.08107 27.2391 10.2 -17.08107 27.2391 2.2 -18.08107 27.2391 2.2 -18.08107 28.2391 2.2 -17.08107 28.2391 2.2 -14.58107 28.2391 10.2 -14.58107 27.2391 10.2 -13.58107 28.2391 10.2 -13.58107 27.2391 10.2 -13.58107 27.2391 2.2 -14.58107 27.2391 2.2 -14.58107 28.2391 2.2 -13.58107 28.2391 2.2 -14.58107 24.7391 10.2 -14.58107 23.7391 10.2 -13.58107 24.7391 10.2 -13.58107 23.7391 10.2 -13.58107 23.7391 2.2 -14.58107 23.7391 2.2 -14.58107 24.7391 2.2 -13.58107 24.7391 2.2 -18.08107 24.7391 10.2 -18.08107 23.7391 10.2 -17.08107 24.7391 10.2 -17.08107 23.7391 10.2 -17.08107 23.7391 2.2 -18.08107 23.7391 2.2 -18.08107 24.7391 2.2 -17.08107 24.7391 2.2 -24.18107 28.2391 10.2 -24.18107 27.2391 10.2 -23.18107 28.2391 10.2 -23.18107 27.2391 10.2 -23.18107 27.2391 2.2 -24.18107 27.2391 2.2 -24.18107 28.2391 2.2 -23.18107 28.2391 2.2 -20.68107 28.2391 10.2 -20.68107 27.2391 10.2 -19.68107 28.2391 10.2 -19.68107 27.2391 10.2 -19.68107 27.2391 2.2 -20.68107 27.2391 2.2 -20.68107 28.2391 2.2 -19.68107 28.2391 2.2 -20.68107 24.7391 10.2 -20.68107 23.7391 10.2 -19.68107 24.7391 10.2 -19.68107 23.7391 10.2 -19.68107 23.7391 2.2 -20.68107 23.7391 2.2 -20.68107 24.7391 2.2 -19.68107 24.7391 2.2 -24.18107 24.7391 10.2 -24.18107 23.7391 10.2 -23.18107 24.7391 10.2 -23.18107 23.7391 10.2 -23.18107 23.7391 2.2 -24.18107 23.7391 2.2 -24.18107 24.7391 2.2 -23.18107 24.7391 2.2 -30.28107 28.2391 10.2 -30.28107 27.2391 10.2 -29.28107 28.2391 10.2 -29.28107 27.2391 10.2 -29.28107 27.2391 2.2 -30.28107 27.2391 2.2 -30.28107 28.2391 2.2 -29.28107 28.2391 2.2 -26.78107 28.2391 10.2 -26.78107 27.2391 10.2 -25.78107 28.2391 10.2 -25.78107 27.2391 10.2 -25.78107 27.2391 2.2 -26.78107 27.2391 2.2 -26.78107 28.2391 2.2 -25.78107 28.2391 2.2 -26.78107 24.7391 10.2 -26.78107 23.7391 10.2 -25.78107 24.7391 10.2 -25.78107 23.7391 10.2 -25.78107 23.7391 2.2 -26.78107 23.7391 2.2 -26.78107 24.7391 2.2 -25.78107 24.7391 2.2 -30.28107 24.07243 10.2 -29.28107 24.40576 10.2 -29.28107 23.7391 2.2 -30.28107 23.7391 2.2 -30.28107 24.7391 2.2 -29.28107 24.7391 2.2 -24.88398 23.38128 1.2 -24.88398 23.38128 2.2 -28.30415 23.38128 1.2 -30.98398 23.38128 2.2 -30.98398 23.38128 1.2 -30.98398 28.72862 2.2 -30.98398 28.72862 1.2 -30.98398 28.17681 1.2 -30.98398 24.37814 1.2 -24.88398 28.72862 2.2 -24.88398 28.72862 1.2 -28.30415 28.86431 1.2 -24.88398 24.37814 1.2 -24.88398 28.17681 1.2 -36.38107 28.2391 10.2 -36.38107 27.2391 10.2 -35.38107 28.2391 10.2 -35.38107 27.2391 10.2 -35.38107 27.2391 2.2 -36.38107 27.2391 2.2 -36.84922 28.40227 2.2 -35.38107 28.2391 2.2 -32.88107 28.2391 10.2 -32.88107 27.2391 10.2 -31.88107 28.2391 10.2 -31.88107 27.2391 10.2 -31.88107 27.2391 2.2 -32.88107 27.2391 2.2 -32.88107 28.2391 2.2 -31.88107 28.2391 2.2 -32.88107 24.7391 10.2 -32.88107 23.7391 10.2 -31.88107 24.7391 10.2 -31.88107 23.7391 10.2 -31.88107 23.7391 2.2 -32.88107 23.7391 2.2 -32.88107 24.7391 2.2 -31.88107 24.7391 2.2 -36.38107 24.7391 10.2 -36.38107 23.7391 10.2 -35.38107 24.7391 10.2 -35.38107 23.7391 10.2 -35.38107 24.07243 2.2 -36.38107 23.7391 2.2 -36.38107 24.7391 2.2 -37.08329 23.38128 2.2 -37.08329 23.38128 1.2 -37.08329 28.72862 1.2 -38.72142 -21.96487 6.53714 -38.72142 -21.96487 1.69111 -29.02936 -21.96487 6.53714 -29.02936 -21.96487 1.69111 -38.72142 -29.96487 6.53714 -29.02936 -29.96487 6.53714 -39.00541 -29.96487 1.445555 -29.02936 -29.96487 1.69111 29.12128 -21.96487 6.268946 29.12128 -21.96487 1.959304 38.91359 -21.96487 6.268946 38.91359 -21.96487 1.959304 29.12128 -29.96487 6.268946 38.91359 -29.96487 6.268946 29.12128 -29.96487 1.959304 38.91359 -29.96487 1.959304 3.592746 -30.12835 7.2 3.592746 -20.18563 7.2 -10.61113 -30.12835 7.2 -10.61113 -20.18563 7.2 3.592746 -20.18563 1.2 -10.61114 -20.18563 1.2 3.592746 -29 1.2 3.592746 -30.12835 1.2 -9.196129 -30.04661 6.271481 -9.24878 -30.04661 1.952119 -10.61113 -30.12835 1.2 2.334695 -30.04661 1.947809 2.237176 -30.08748 6.271059 -10.61113 -29 1.2 -14.53809 -30.0448 4.2 -14.53809 -20.60339 4.2 -22.392 -30.0448 4.2 -22.392 -20.60339 4.2 -14.53809 -20.60339 1.2 -22.392 -20.60339 1.2 -14.53809 -29 1.2 -14.53809 -30.0448 1.2 -21.40604 -30.00484 3.612354 -21.44754 -30.00484 1.502781 -22.392 -30.0448 1.2 -15.61636 -30.00484 1.497425 -15.58783 -30.00484 3.576582 -22.392 -29 1.2 6.349971 -16.56624 7.2 6.349971 -30.18526 7.2 20.80451 -16.56624 7.2 20.80451 -30.18526 7.2 6.349971 -30.18526 -2.8 6.349971 -16.56624 -2.8 20.80451 -30.18526 -2.8 20.80451 -16.56624 -2.8 20.80451 -16.56624 1.2 6.349971 -16.56624 1.2 6.349971 -16.56624 0 6.349971 -29 0 6.349971 -29 1.2 17.21255 -30.05933 -0.8067095 16.37224 -30.01997 -0.9330192 16.37223 -30.18526 -2.161043 10.75261 -30.05303 -1.008805 9.912289 -30.05303 -0.8067095 19.64441 -30.09711 1.189045 17.21255 -30.1118 1.189045 9.912289 -30.07507 1.189045 7.262421 -30.13017 1.189045 7.101941 -30.18526 6.52839 20.13609 -30.18526 6.52839 10.75261 -30.18526 -2.161043 20.80451 -29 1.2 20.80451 -16.56624 0 20.80451 -29 0 28.10394 -16.59652 7.2 28.10394 -29.96487 7.2 39.57338 -16.59652 7.2 39.57338 -29.96487 7.2 28.10394 -29.96487 1.2 39.57338 -29.96487 1.2 28.10394 -29 1.2 28.10394 -16.59652 1.2 39.57338 -16.59652 1.2 39.57338 -29 1.2 -28.10394 -29.96487 7.2 -28.10394 -16.59652 7.2 -39.57338 -29.96487 7.2 -39.57338 -16.59652 7.2 -39.57339 -16.59652 1.2 -28.10394 -16.59652 1.2 -28.10394 -29 1.2 -28.10394 -29.96487 1.2 -39.57338 -29 1.2 -37.55802 -12.30426 11.2 -37.55802 -13.2917 11.2 -1 -12.30426 11.2 -1 -13.2917 11.2 -37.55802 -13.2917 1.2 -1 -13.2917 1.2 -1 -12.30426 1.2 -37.55802 -12.30426 1.2 -37.55802 -10.30426 11.2 -37.55802 -11.2917 11.2 -1 -10.30426 11.2 -1 -11.2917 11.2 -37.55802 -11.2917 1.2 -1 -11.2917 1.2 -1 -10.30426 1.2 -37.55802 -10.30426 1.2 -37.55802 -8.304263 11.2 -37.55802 -9.291699 11.2 -1 -8.304263 11.2 -1 -9.291699 11.2 -37.55802 -9.291699 1.2 -1 -9.291699 1.2 -1 -8.304263 1.2 -37.55802 -8.304263 1.2 -37.55802 -6.304262 11.2 -37.55802 -7.291698 11.2 -1 -6.304262 11.2 -1 -7.291698 11.2 -37.55802 -7.291698 1.2 -1 -7.291698 1.2 -1 -6.304262 1.2 -37.55802 -6.304262 1.2 -37.55802 -4.304262 11.2 -37.55802 -5.291698 11.2 -1 -4.304262 11.2 -1 -5.291698 11.2 -37.55802 -5.291698 1.2 -1 -5.291698 1.2 -1 -4.304262 1.2 -37.55802 -4.304262 1.2 -37.55802 -2.304262 11.2 -37.55802 -3.291698 11.2 -1 -2.304262 11.2 -1 -3.291698 11.2 -37.55802 -3.291698 1.2 -1 -3.291698 1.2 -1 -2.304262 1.2 -37.55802 -2.304262 1.2 -37.55802 -0.3042622 11.2 -37.55802 -1.291698 11.2 -1 -0.3042622 11.2 -1 -1.291698 11.2 -37.55802 -1.291698 1.2 -1 -1.291698 1.2 -1 -0.3042622 1.2 -37.55802 -0.3042622 1.2 -37.55802 1.695738 11.2 -37.55802 0.7083021 11.2 -1 1.695738 11.2 -1 0.7083021 11.2 -37.55802 0.7083022 1.2 -1 0.7083022 1.2 -1 1.695738 1.2 -37.55802 1.695738 1.2 -37.55802 3.695738 11.2 -37.55802 2.708302 11.2 -1 3.695738 11.2 -1 2.708302 11.2 -37.55802 2.708302 1.2 -1 2.708302 1.2 -1 3.695738 1.2 -37.55802 3.695738 1.2 -37.55802 5.695738 11.2 -37.55802 4.708302 11.2 -1 5.695738 11.2 -37.55802 4.708302 1.2 -1 4.708302 1.2 -1 5.695738 1.2 -37.55802 5.695738 1.2 -37.55802 7.695738 11.2 -37.55802 6.708302 11.2 -1 7.695738 11.2 -1 6.708302 11.2 -37.55802 6.708302 1.2 -1 6.708302 1.2 -1 7.695738 1.2 -37.55802 7.695738 1.2 -37.55802 9.695738 11.2 -37.55802 8.708302 11.2 -1 9.695738 11.2 -1 8.708302 11.2 -37.55802 8.708302 1.2 -1 8.708302 1.2 -1 9.695738 1.2 -37.55802 9.695738 1.2 -37.55802 11.69574 11.2 -37.55802 10.7083 11.2 -1 11.69574 11.2 -1 10.7083 11.2 -37.55802 10.7083 1.2 -1 10.7083 1.2 -1 11.69574 1.2 -37.55802 11.69574 1.2 -37.55802 13.69574 11.2 -37.55802 12.7083 11.2 -1 13.69574 11.2 -1 12.7083 11.2 -37.55802 12.7083 1.2 -1 12.7083 1.2 -1 13.69574 1.2 -37.55802 13.69574 1.2 -37.55802 15.69574 11.2 -37.55802 14.7083 11.2 -1 15.69574 11.2 -1 14.7083 11.2 -37.55802 14.7083 1.2 -1 14.7083 1.2 -1 15.69574 1.2 -37.55802 15.69574 1.2 -37.55802 17.69574 11.2 -37.55802 16.7083 11.2 -1 17.69574 11.2 -1 16.7083 11.2 -37.55802 16.7083 1.2 -1 16.7083 1.2 -1 17.69574 1.2 -37.55802 17.69574 1.2 -37.55802 19.69574 11.2 -37.55802 18.7083 11.2 -1 19.69574 11.2 -1 18.7083 11.2 -37.55802 18.7083 1.2 -1 18.7083 1.2 -1 19.69574 1.2 -37.55802 19.69574 1.2 -37.55802 21.69574 11.2 -37.55802 20.7083 11.2 -1 21.69574 11.2 -1 20.7083 11.2 -37.55802 20.7083 1.2 -1 20.7083 1.2 -1 21.69574 1.2 -37.55802 21.69574 1.2 35.98039 4.677097 11.45741 34.27005 4.205173 10.62082 33.8547 -0.9281989 10.93478 33.41107 3.445933 9.117484 1.832784 5.592893 9.117485 2.230612 0.787982 9.11057 3.581702 -2.694358 9.10412 5.618321 -5.808751 9.110229 8.298481 -8.301969 9.583022 15.24662 -11.09068 9.123454 11.63688 -10.13898 9.109034 18.96537 -11.25418 9.10695 22.61102 -10.4635 9.13185 28.8828 -6.554214 9.139432 25.99639 -8.911586 9.103967 31.189 -3.626785 9.10011 32.45101 -1.277913 9.653687 17.27158 -14.16586 11.51933 25.42561 -11.93902 11.43427 32.92401 -5.595611 11.42875 11.61762 -12.66886 11.4379 4.621674 -8.22398 11.43524 0.953435 -2.717249 11.44185 -0.9909827 4.706827 11.4984 30.2532 -6.301331 10.64833 26.29118 -9.675004 10.64833 21.48056 -11.65923 10.64833 16.29223 -12.05977 10.64833 11.23406 -10.83743 10.64833 5.627725 -7.030376 10.62081 2.64568 -2.758673 10.62081 1.129616 2.225456 10.62081 0.6332637 5.971422 10.94574 7.850442 1.491616 9.300255 21.77511 -4.826402 9.282544 27.47879 1.45612 8.355409 27.73207 3.558111 9.514715 26.2284 1.905842 11.04568 13.41641 -2.434649 11.42584 25.66956 5.285941 11.44059 22.99491 -1.615655 11.44731 17.82912 -4.072606 11.28962 15.73392 -4.706967 10.63448 24.04345 -2.456655 10.6555 19.64986 -4.677225 10.63448 17.57622 -5.715552 9.305526 26.2124 -0.9488659 9.39917 24.38352 -3.033402 9.412166 12.14444 -3.141382 10.63448 13.36803 -4.787108 9.295992 9.905141 -2.183611 9.340555 10.20022 1.023894 11.41718 9.502066 -0.2511746 10.63448 26.98017 5.574929 10.63448 8.26369 3.46391 10.63448 9.265045 6.11189 11.28059 7.51179 5.480723 9.514713 21.35553 11.53567 11.463 11.21257 9.435867 11.4454 14.09727 11.83991 11.41669 7.363289 4.519417 1.2 8.203832 0.23371 1.20013 10.90395 -3.233546 1.2 14.66659 -5.39671 1.200166 19.08189 -5.634804 1.2 23.32016 -4.145028 1.199979 27.04002 0.2337002 1.200152 27.88057 4.519417 1.2 30.7469 -4.364574 1.200124 33.36653 2.709767 1.200013 27.04002 8.805133 1.20013 32.9007 8.285297 1.2 30.47594 13.79812 1.200508 24.33991 12.27238 1.2 24.73327 18.68728 1.200375 20.57727 14.43554 1.200166 17.38197 20.36913 1.20031 16.16197 14.67364 1.2 11.9237 13.18386 1.199979 10.08619 18.46385 1.200271 4.76791 -4.759274 1.200508 10.51059 -9.648443 1.200375 17.86188 -11.33029 1.20031 25.15767 -9.425018 1.200271 4.49695 13.4034 1.200124 8.203832 8.805124 1.200152 1.877325 6.329052 1.200013 2.343154 0.7535374 1.2 33.01325 8.250836 9.110573 31.66216 11.73319 9.104114 29.62553 14.84759 9.110227 26.84056 17.33594 9.114212 23.60697 19.17781 9.109036 19.47816 20.28768 9.586354 16.27849 20.29301 9.106945 12.63283 19.50234 9.131844 9.247467 17.95042 9.103968 7.041853 16.41157 9.646417 4.054861 12.66563 9.100118 36 -14.2 11.5 -1 22.8 1.2 -1 22.8 11.5 21.68644 22.78489 11.49683 36 22.8 1.2 14.86602 22.74263 11.47222 36 22.8 11.5 36 -14.2 1.2 -1 -14.2 1.2 -1 -14.2 11.5 39.54504 25.94436 1.173527 39.2856 27.32182 1.183965 37.87279 27.50372 1.173529 37.40761 26.18109 1.186013 39.33807 27.25754 0 37.69275 27.45122 0 25.50372 -18.3728 1.173528 23.87279 -17.99629 1.173528 23.40761 -19.31891 1.186014 25.33807 -18.24246 0 23.98411 -17.93635 0 -37.39451 26.22998 1.186013 -37.7144 27.32182 1.183965 -38.81885 27.59603 1.192617 -39.60452 26.76944 1.183965 -37.69275 25.54878 0 -38.07985 27.67471 0 -39.7274 26.27651 0 -23.40674 -18.68111 1.187598 -24.22999 -17.89451 1.186014 -25.32183 -18.21441 1.183964 -23.39544 -18.76298 0 -24.41494 -17.82091 0 -25.6791 -18.91494 0 41 -29 0 37.83679 25.5214 0 39.4786 25.83679 0 41 29 0 -41 29 0 -41 -29 0 -24.27651 -20.22741 0 25.30726 -19.95122 0 23.43635 -19.51589 0 -41 -29 1.2 -41 29 1.2 -30.98364 29 1.2 -18.78364 29 1.2 -12.68364 29 1.2 -6.583636 29 1.2 -0.4836359 29 1.2 5.616364 29 1.2 11.71636 29 1.2 17.81637 29 1.2 41 29 1.2 41 23.73439 1.2 41 -16.0375 1.2 41 -29 1.2 29.1883 18.53466 11.44185 33.92383 12.62181 11.43524 2.310732 14.25182 11.39299 6.948933 19.31241 11.43889 -21.50565 -22.02482 3.55103 -15.58783 -22.01283 3.576582 -15.54789 -22.02482 1.506606 -21.44754 -22.01283 1.502781 -9.322489 -22.08748 6.269852 2.407835 -22.06296 6.270531 2.51023 -22.08748 1.955199 -9.24878 -22.06296 1.952119 2.919812 -29.96487 6.268946 16.37224 -22.18526 -1.524222 10.75261 -22.18526 -2.161043 20.13609 -22.18526 6.52839 19.69358 -22.18526 1.189045 7.390805 -22.15378 6.02469 7.487093 -22.18526 1.189045 10.75261 -22.18526 -1.311948 19.39857 -22.09711 5.85679 7.583381 -29.96487 -1.311948 7.583381 -21.96487 -1.311948 19.39857 -21.96487 -1.311948 19.39857 -29.96487 -1.311948 23.91602 28.72862 1.2 -18.78364 23.09064 1.2 -23.87233 -20.00482 1.175675 -25.50372 -19.62721 1.173529 25.32183 -19.7856 1.183966 24.22998 -20.10549 1.186015 -39.28659 25.67763 1.186013 -38.1812 25.40101 1.198003 23.91602 23.38128 1.2 17.81637 23.09064 1.2 11.71636 23.09064 1.2 -0.4836359 23.09064 1.2 5.616364 23.09064 1.2 -6.583636 23.09064 1.2 -12.68364 23.09064 1.2 -30.98364 23.09064 1.2 -18.78398 28.72862 1.2 -12.68398 28.72862 1.2 -18.78398 28.17681 1.2 -12.68398 23.38128 1.2 -18.78398 23.38128 1.2 -18.78398 24.37814 1.2 -12.68398 24.37814 1.2 -6.583979 28.72862 1.2 -12.68398 28.17681 1.2 -0.4839789 28.72862 1.2 -6.583979 28.17681 1.2 -0.4839789 23.38128 1.2 -6.583979 23.38128 1.2 -6.583979 24.37814 1.2 -0.4839789 24.37814 1.2 5.616021 28.72862 1.2 -0.4839789 28.17681 1.2 11.71602 28.72862 1.2 5.616021 28.17681 1.2 11.71602 23.38128 1.2 5.616021 23.38128 1.2 5.616021 24.37814 1.2 11.71602 24.37814 1.2 17.81602 28.72862 1.2 11.71602 28.17681 1.2 17.81602 28.17681 1.2 17.81602 23.38128 1.2 17.81602 24.37814 1.2 38.22999 25.39451 1.186013 -18.78398 23.38128 2.2 -18.78398 28.72862 2.2 -12.68398 23.38128 2.2 -12.68398 28.72862 2.2 -6.583979 23.38128 2.2 -6.583979 28.72862 2.2 -0.4839789 23.38128 2.2 -0.4839789 28.72862 2.2 5.616021 23.38128 2.2 5.616021 28.72862 2.2 11.71602 23.38128 2.2 11.71602 28.72862 2.2 17.81602 23.38128 2.2 17.81602 28.72862 2.2 23.91602 28.72862 2.2 27.39342 7.547213 9.300258 25.33872 11.22244 9.340557 21.87583 13.82594 9.295993 17.66764 14.75438 9.305529 13.46875 13.86524 9.282545 10.86033 12.07224 9.412162 9.031461 9.987696 9.399171 7.765071 7.582721 8.355407 8.91815 8.280507 10.6555 18.94479 13.36663 11.10641 12.02871 12.09613 10.63448 15.594 13.71606 10.63448 23.09942 12.18022 10.63448 25.08186 9.456275 11.10641 2.368837 8.888859 9.566773 19.0366 21.88232 11.21033 3.01247 12.57127 10.64218 9.143479 18.9045 10.71292 13.76329 20.69806 10.64833 24.00979 19.87626 10.64833 28.44268 17.15068 10.64833 31.81635 13.18868 10.64833 33.69474 8.549417 10.58352 -42.25774 9.430925 -8 -42.18848 -6.35499 -8 -42.18848 9.35499 -5 -42.25774 -6.430925 -5 42.25774 9.430925 -5 42.18848 -6.35499 -5 42.18848 9.35499 -8 42.25774 -6.430925 -8 -59.18505 31.46948 -8 -59.36978 31.46032 -5 59.22016 31.4529 -5 59.41512 31.43449 -8 59.65798 -28.24625 -8 58.00001 -28.5 -5 53 -28.5 -8 17.725 -28.5 -8 35.45 -28.5 -5 0 -28.5 -5 -38.35 -28.5 -8 -45.675 -28.5 -5 -58.00001 -28.5 -8 -59.65798 -28.24625 -5 -25.67282 -19.37857 -5 18.41436 -13.17197 -5 -17.49485 -13.39701 -5 0 -18.35 -5 -49.60663 26.84475 -5 -48.50475 28.06376 -5 -56.57659 27.46467 -5 -50.88825 -17.32285 -5 -57.65526 -21.89337 -5 51.54745 -17.5959 -5 45.22999 -12.98111 -5 35.45 -17 -5 57.03533 27.92341 -5 49.42341 27.46466 -5 46.39336 26.84474 -5 47.49525 28.06376 -5 39.06278 27.66035 -5 53.11771 20.98889 -5 46.89812 25.28099 -5 48.96466 25.07658 -5 49.5 19.49038 -5 59.42341 27.46467 -5 61.90916 23.38255 -5 59.21901 25.39813 -5 59.60272 21.69575 -5 57.65526 24.89337 -5 56.43624 25.99524 -5 61.90916 29.61745 -5 63.09921 26.71543 -5 44.79563 15.41505 -5 61.90916 -20.38255 -5 59.41348 -18.65666 -5 58.34474 -21.89337 -5 63.09921 -23.28458 -5 56.78099 -22.39813 -5 56.57659 -24.46467 -5 59.56375 -22.99524 -5 61.34774 -27.35241 -5 58.96467 -24.92341 -5 -59.42341 -24.46467 -5 -59.21901 -22.39813 -5 -61.90916 -20.38255 -5 -56.43624 -22.99524 -5 -63.09921 -23.71543 -5 -61.90916 -26.61745 -5 -57.03533 -24.92341 -5 -59.60272 -18.69575 -5 -38.35 -17 -5 -44.79563 -12.41505 -5 -38.12144 25.32718 -5 -44.00962 14 -5 -48.08495 18.70437 -5 -46.89812 27.71901 -5 -46.39336 26.15526 -5 -47.49525 24.93624 -5 -53.11771 20.98889 -5 -49.10188 25.28099 -5 -63.09921 26.28458 -5 -59.56375 25.99524 -5 -56.78099 25.39813 -5 -61.90916 23.38255 -5 -58.34474 24.89337 -5 -59.41348 21.65666 -5 -61.90916 29.61745 -5 -58.96467 27.92341 -5 -25.20341 12.67779 -5 -24.61191 -10.19032 -5 -29.40632 -3.137926 -5 -29.62682 5.386963 -5 29.62682 -2.386964 -5 25.20341 -9.677786 -5 17.49485 16.39701 -5 24.61191 13.19032 -5 38.59279 25.21372 -5 29.40632 6.137926 -5 -18.41436 16.17197 -5 -48.96466 -22.07658 -5 -46.89812 -22.28099 -5 -49.42341 -24.46466 -5 -47.49525 -25.06376 -5 -46.39336 -23.84474 -5 27.85 -21.05 -5 46.39336 -23.15526 -5 49.10188 -22.28099 -5 47.49525 -21.93624 -5 46.89812 -24.71901 -5 48.50475 -25.06376 -5 49.60663 -23.84475 -5 -25.2235 -17.93244 -5 -23.67359 -18.08574 -5 -23.29503 -19.25856 -5 -24.40722 -20.28629 -5 24.12144 -17.82718 -5 25.56756 -18.2765 -5 25.41426 -19.82641 -5 24.24144 -20.20498 -5 23.21372 -19.09279 -5 -39.56756 25.7765 -5 -39.41425 27.32641 -5 -37.21372 26.59279 -5 -33.65 27.9 -5 -38.24144 27.70498 -5 37.32718 26.12143 -5 37.58574 27.32641 -5 39.70497 26.24144 -5 25.67282 -19.37857 -8 -18.41436 -13.17197 -8 17.49485 -13.39701 -8 0 -18.35 -8 -46.39336 26.84474 -8 -47.49525 28.06376 -8 -39.06278 27.66035 -8 63.09921 26.28457 -8 61.90916 29.61745 -8 49.60663 26.84475 -8 48.50475 28.06376 -8 56.57659 27.46467 -8 29.62682 5.386963 -8 -38.35 -17 -8 -51.54745 -17.5959 -8 -45.22999 -12.98111 -8 -38.59279 25.21372 -8 -59.41348 -18.65666 -8 -56.78099 -22.39813 -8 -56.57659 -24.46467 -8 -58.34474 -21.89337 -8 -61.90916 -20.38255 -8 -59.56375 -22.99524 -8 -63.09921 -23.28457 -8 -58.96467 -24.92341 -8 -61.34773 -27.35241 -8 59.21901 -22.39813 -8 61.90916 -20.38255 -8 57.65526 -21.89337 -8 53.11772 -17.98889 -8 56.43624 -22.99524 -8 57.03533 -24.92341 -8 59.42341 -24.46467 -8 61.90916 -26.61745 -8 63.09921 -23.71543 -8 59.60271 -18.69575 -8 44.79563 -12.41505 -8 35.45 -17 -8 49.5 -16.49038 -8 29.40632 -3.137926 -8 53.11771 20.98889 -8 48.08495 18.70437 -8 35.45 20.7 -8 44.00962 14 -8 46.89812 27.71901 -8 46.39336 26.15526 -8 47.49525 24.93624 -8 49.10188 25.28099 -8 56.78099 25.39813 -8 59.56375 25.99524 -8 58.96467 27.92341 -8 61.90916 23.38255 -8 58.34474 24.89337 -8 59.41348 21.65666 -8 -59.42341 27.46467 -8 -57.03533 27.92341 -8 -49.42341 27.46466 -8 -56.43624 25.99524 -8 -53.11771 20.98889 -8 -57.65526 24.89337 -8 -59.60271 21.69575 -8 -59.21901 25.39813 -8 -61.90916 23.38255 -8 -63.09921 26.71543 -8 -61.90916 29.61745 -8 -48.96466 25.07658 -8 -49.5 19.49038 -8 -46.89812 25.28099 -8 -44.79563 15.41505 -8 25.20341 12.67779 -8 17.86213 16.3622 -8 -16.825 26.1 -8 24.61191 -10.19032 -8 -24.61191 13.19032 -8 -29.62682 -2.386964 -8 -25.20341 -9.677786 -8 -17.84578 16.29471 -8 -29.40632 6.137926 -8 -37.32718 26.12143 -8 -37.58574 27.32641 -8 -39.70497 26.24143 -8 38.12144 25.32718 -8 39.32641 25.58574 -8 39.66035 27.06279 -8 38.24144 27.70498 -8 37.21372 26.59279 -8 -25.56756 -18.2765 -8 -33.65 -21.05 -8 -25.41426 -19.82641 -8 -24.24144 -20.20498 -8 -23.32718 -19.37856 -8 -23.7765 -17.93244 -8 25.2235 -17.93244 -8 23.67359 -18.08575 -8 23.29503 -19.25856 -8 24.40722 -20.28629 -8 -46.89812 -24.71901 -8 -46.39336 -23.15526 -8 -48.50475 -25.06376 -8 -49.10188 -22.28099 -8 -47.49525 -21.93624 -8 -49.60663 -23.84475 -8 46.89812 -22.28099 -8 46.39336 -23.84474 -8 47.49525 -25.06376 -8 49.42341 -24.46466 -8 48.96466 -22.07658 -8</float_array>
          <technique_common>
            <accessor source="#vim4_module-mesh-positions-array" count="1058" stride="3">
              <param name="X" type="float"/>
              <param name="Y" type="float"/>
              <param name="Z" type="float"/>
            </accessor>
          </technique_common>
        </source>
        <source id="vim4_module-mesh-normals">
          <float_array id="vim4_module-mesh-normals-array" count="2634">0 0 1 0 -1 0 -1 0 0 0 1 0 1 0 0 0 -0.9998889 0.01490712 -0.07442992 -0.9972262 0 0.8804626 0.4704545 0.05880713 9.53678e-7 0 1 0.5533728 -0.8300566 0.06917136 0.3162267 0.9486837 0 0 0.9991331 0.0416305 9.53674e-7 0 1 0.5533717 -0.8300575 0.06917124 0 0.9991331 0.04163038 0.5533712 -0.8300576 0.06917119 0 0.9991331 0.04163032 -9.53678e-7 0 1 -0.3162266 -0.9486838 0 0 -0.9991331 0.04163038 -1 0 0 -0.5533711 0.8300577 0.06917154 0.5533713 -0.8300577 0.06917119 0 0.9991331 0.04163038 -0.9486837 0.3162267 0 -0.9991331 0 0.04163062 0 1 -4.76837e-7 0.8300577 0.5533712 0.06917154 -0.553372 -0.8300572 -0.0691713 0.3159804 0.9479432 -0.03949707 -0.315981 0.9479431 0.03949749 1 0 1.1921e-7 0.3152448 -0.9457322 0.07881116 0 -0.9991331 0.04163038 -0.3152448 0.9457324 0.07881069 0.03853142 0.9712216 0.2350406 -0.05056852 0.9987207 0 -0.9266768 -0.3729567 0.0466203 0 0.999792 0.02039289 0.1104643 0.9938802 0 0 -0.9991331 -0.04163038 0.3162245 -0.9486845 0 0.5533684 0.8300597 -0.06917124 -0.9693138 0.04518908 0.2416379 -0.05261677 0.945643 0.3209218 0 0 -1 0.9993706 -0.03547626 0 0.9984482 0 -0.05568957 -0.02459603 -0.02979832 0.9992533 0.05721253 -0.9983619 -6.973e-4 0.05988943 -0.998205 0 4.01838e-5 -0.9941555 0.1079583 0 -0.9940793 0.1086575 -0.07136327 -0.9973893 -0.01103711 -0.03013503 -0.9995459 0 -0.003573238 -0.9992427 -0.03874737 0 -0.9961477 -0.08769237 -1 -1.44261e-7 1.58946e-7 1 -3.02876e-7 0 1 0 -3.17891e-7 1 2.43409e-6 0 0.04002755 -0.9991983 -7.87914e-4 0.04227328 -0.9991062 0 1.19838e-4 -0.9914526 0.1304681 0 -0.9910933 0.1331697 -0.03689521 -0.999319 5.065e-4 -0.03803986 -0.9992762 0 -3.89279e-4 -0.9979938 -0.06331068 0 -0.9976961 -0.06784355 -1 -6.05752e-7 6.35783e-7 -1 -6.43689e-7 0 -0.06631869 -0.9888815 0.1330987 0.01114559 -0.9988631 0.0463494 -0.07576966 -0.9971253 0 0.006039738 -0.9996974 0.02384799 0.04325526 -0.9990032 -0.01103138 0.02078652 -0.9997431 0.009052932 0.06027233 -0.9981821 0 -0.00946933 -0.999899 -0.01060265 0 -1 6.28722e-6 0 -1 -6.97237e-6 0.0182743 -0.9996676 -0.01818752 -0.0495724 -0.9984255 -0.0262503 0.01225882 -0.9963024 0.08503663 0 -1 -8.49907e-6 -0.01654428 -0.9933437 0.1139939 1 -2.68204e-6 0 1 1.28738e-6 0 -1 0 -3.17891e-7 1 0 -3.17891e-7 0 -1 1.19056e-5 0 -1 -9.5004e-6 -0.8492709 -0.5212605 -0.08382451 -1 -4.10067e-7 6.35783e-7 -0.02175319 -0.2585802 -0.9657449 0 -1 -1.66954e-7 -1 0 3.8147e-7 -1 0 3.8147e-7 0 1 -1.66954e-7 0 -1 1.66954e-7 -1 0 3.81469e-7 -1 0 3.8147e-7 -1 0 3.8147e-7 -1 0 3.8147e-7 0 1 0 -1 0 3.8147e-7 -1 0 3.8147e-7 0 -1 0 0 -1 0 0 -1 0 -1 0 3.8147e-7 -1 0 3.8147e-7 -0.007800757 0.2888115 0.9573542 -4.03456e-5 -1 0 0 -1 -1.43311e-4 0 -1 0 0 -1 -3.33908e-7 0 1 1.66954e-7 -1 0 3.81469e-7 -1 0 3.8147e-7 0 1 3.33908e-7 -0.4577421 0.09112763 0.8844026 -0.8905777 0.2258141 0.3948157 -0.8817235 0.4259299 0.202848 -0.6686207 0.5336874 0.5178071 -0.5802516 0.7043195 0.4089526 -0.5798407 0.6809606 0.4473001 -0.3651638 0.8049744 0.4676233 -0.3484105 0.8447009 0.4063133 -0.1844245 0.8339627 0.5200903 -0.07176929 0.9296429 0.3614048 0.03990471 0.8554708 0.5163114 0.2317419 0.8851013 0.4035981 0.209885 0.8685236 0.4490156 0.4767737 0.7468143 0.4636327 0.5235748 0.6640514 0.5337651 0.7662938 0.5018954 0.4011172 0.7244064 0.5057027 0.4685086 0.8029589 0.3105923 0.5087136 0.8819283 0.2682632 0.3876045 0.8360555 0.06843888 0.5443595 -0.684185 0.09954702 0.7224828 -0.6676521 0.4145461 0.6183788 0.5152955 0.7616719 0.3928442 -0.7248951 0.2138472 0.6548256 -0.3159545 0.1619389 0.9348522 -0.3546585 0.416507 0.8371018 -0.3595259 0.4257103 0.8303685 -0.1552616 0.3764215 0.913346 -0.1320454 0.5158435 0.8464453 -0.02861237 0.3706245 0.928342 0.09790241 0.4188717 0.9027523 0.09942281 0.4114217 0.9060063 0.2873294 0.4293153 0.8562303 0.2495965 0.3933771 0.884848 0.3896123 0.2719861 0.879901 0.4244074 0.2816815 0.8605428 0.4352882 0.1324054 0.8905015 0.5002853 0.1245009 0.856863 0.346509 -0.03539502 0.9373787 0.2077454 -0.07956063 0.974942 -0.1396933 -0.4497035 0.8821863 0.4197751 -0.2872507 0.8609738 0.2177774 -0.5112431 0.8313866 0.1936242 -0.391617 0.8995254 0.8202568 -0.2892269 0.4934841 0.6478117 -0.3833355 0.6583267 0.6707408 -0.5856385 0.4551202 0.4827666 -0.7365654 0.4737172 0.349338 -0.697122 0.6260861 -0.5467135 -0.7340732 0.4027913 -0.3587502 -0.3314288 0.8726129 -0.3649886 -0.3336904 0.8691571 -0.5825641 -0.5326091 0.6139599 0.5258501 -0.01242595 0.8504865 0.7535282 -0.08127886 0.6523718 0.8802109 -0.3060898 0.3626815 0.1919161 -0.8959479 0.4005566 0.003947138 -0.07231146 0.9973743 0.005522966 -0.7271673 0.686438 0.006019294 -0.7925206 0.6098155 -0.2257916 -0.5176826 0.8252412 -0.318059 -0.7292274 0.6058596 -0.1980034 -0.8933101 0.4034746 -0.7977055 -0.4414663 0.4108205 -0.7548325 -0.2516138 0.6057379 -0.5616276 -0.1872112 0.805932 -0.4335054 -0.05553191 0.8994384 -0.8995854 -0.09923523 0.4253217 -8.69087e-4 -0.004184842 0.9999909 -0.001994371 0.001746237 0.9999966 -6.09254e-4 -0.00328046 0.9999945 -0.002275049 3.86326e-4 0.9999974 -0.005597472 0.01865619 0.9998103 -0.9959059 -0.08603757 0.02773416 -0.9812229 -0.1924445 -0.01292282 -0.7888599 -0.6143224 -0.0175566 -0.8724108 -0.4873238 0.0376175 -0.4983553 -0.866849 -0.01466333 -0.6004336 -0.7991341 0.02939873 -0.05383658 -0.9983506 -0.01994615 -0.2153674 -0.975757 0.03892821 0.2072294 -0.9778698 0.02875292 0.3315719 -0.943292 -0.01613843 0.5647498 -0.8243655 0.03846102 0.7516505 -0.6595125 -0.008054792 0.7620138 -0.647352 -0.01645022 0.8887802 -0.4577209 0.02369707 0.9809393 -0.1923899 -0.02728372 0.9925699 -0.1216217 0.003665983 -2.0197e-5 -2.23467e-5 1 1.85404e-5 8.84409e-6 1 8.80055e-6 3.3742e-5 1 -1.32273e-5 -3.29974e-5 1 2.25817e-5 4.1977e-6 1 1.46207e-5 -8.56599e-5 1 -7.71639e-5 -2.24999e-5 1 -6.92833e-5 -5.42722e-5 1 1.01902e-5 -5.91399e-5 1 -1.65074e-5 -3.31245e-5 1 -4.00774e-5 -4.58336e-5 1 1.53808e-5 -5.77102e-5 1 8.38555e-6 -5.24162e-5 1 7.71638e-5 2.24999e-5 1 6.9234e-5 5.42723e-5 1 -1.01139e-5 5.91398e-5 1 1.64949e-5 3.31245e-5 1 4.00774e-5 4.58336e-5 1 -1.53808e-5 5.77101e-5 1 -8.38554e-6 5.24162e-5 1 -1.80612e-5 4.90552e-5 1 1.80612e-5 -4.90551e-5 1 2.0197e-5 2.23466e-5 1 -1.85903e-5 -8.84409e-6 1 -8.80057e-6 -3.37421e-5 1 1.32707e-5 3.29975e-5 1 -2.26112e-5 -4.19772e-6 1 -1.46207e-5 8.566e-5 1 -0.996433 -0.08324992 0.01381421 -0.9965038 -0.08248585 0.01327544 -0.9322327 -0.3616707 0.01168787 -0.9148935 -0.402411 0.03217685 -0.8368239 -0.5471966 -0.01736754 -0.6660091 -0.7454439 0.02730125 -0.6476687 -0.7607324 0.04256087 -0.4948564 -0.8688166 -0.01658511 -0.2570087 -0.9661277 0.02332347 -0.2227826 -0.9737714 0.04622983 -2.19776e-4 -0.9999533 -0.009657204 0.2120429 -0.9770518 0.02018797 0.2524112 -0.9665494 0.04550713 0.4167741 -0.9088895 -0.01481556 0.5734406 -0.8192116 0.007635533 0.6698914 -0.7398932 0.0616734 0.7827965 -0.6221137 -0.01429295 0.9136672 -0.4062491 0.01319009 0.9365459 -0.3468029 0.051086 0.987188 -0.1592933 -0.009257435 -0.01690143 0.002238035 0.9998548 -0.004813075 0.006560206 0.999967 0.001093924 0.03417176 0.9994155 -0.006170868 0.9999558 -0.007110536 0.003638625 0.999908 0.01307082 -0.001055479 0.9999995 0 0.9999995 -0.001081943 0 0.9999983 0 0.00191152 0.9999995 0.00103867 0 -0.00182259 -0.9999984 0 0 -0.9999945 0.003307819 0.001868188 -0.9999983 0 -0.9930254 -0.09821897 0.06522089 -0.9822161 -0.1847413 -0.03350037 -0.1167684 -0.9919655 0.04867964 -0.127897 -0.9897267 0.06390178 0.9351285 -0.330108 -0.1286997 -0.9897506 0.01785117 0.1416873 -0.2198689 -0.9724882 -0.07697039 -0.2243754 -0.9719185 -0.07092469 0.9423009 -0.3267778 0.0726999 0.9407366 -0.3301342 0.07762879 -0.9285082 -0.169068 0.3305883 -0.9387954 -0.2746551 0.2079133 -0.2371541 -0.9486046 -0.2095407 0.6106019 -0.7194973 0.3308913 0.7079465 -0.6750708 0.2075844 -0.6780041 -0.7337322 0.0441311 -0.6895319 -0.7215313 0.06275731 0.2798534 -0.9545149 -0.1028761 0.6348677 -0.7335855 0.2424777 0.9678771 -0.1229879 -0.2192897 0 0 -1 0 0 -1 0 0 -1 0 0 -1 0 0 -1 0 0 -1 0 0 -1 0 0 -1 0 0 -1 0 0 -1 0 0 -1 0 0 -1 0 0 -1 0 0 -1 0 0 -1 0 0 -1 0 0 -1 0 0 -1 0 0 -1 0 0 -1 0 0 -1 0 0 -1 0 0 -1 0 0 -1 0 0 -1 0 0 -1 0 0 -1 0 0 -1 0 0 -1 0 -1 -1.29522e-5 0 -1 -2.59043e-5 0 -1 8.90462e-6 0 -1 -4.43462e-6 0.0465933 0.9200928 -0.3889197 -0.01377928 0.9668162 0.2551015 0 1 4.16906e-6 0 1 -1.66763e-5 0 1 2.50144e-5 0 1 -2.50144e-5 0 1 8.33814e-6 -2.07274e-4 -0.01330173 0.9999116 -0.01977306 -0.002327919 0.9998018 -0.005219936 -0.005297601 0.9999724 0.03211981 -7.21289e-5 0.9994841 0.002644956 -0.01149326 0.9999305 0.001701474 -0.01364332 0.9999056 -0.001150131 0.04998683 0.9987493 0.004071652 0.007006049 0.9999672 0.02934426 7.03561e-5 0.9995694 0.007490217 0.003789961 0.9999648 -0.9999939 -4.98678e-4 0.003476977 -0.9995439 0 0.03020244 -0.9995439 0 0.03020465 -0.9995439 0 0.03020364 -0.9995438 0 0.03020393 -0.9995437 0 0.03020775 -0.9995438 0 0.03020399 -0.9995437 0 0.03020769 -0.9995438 0 0.03020483 -0.9995437 0 0.03020542 -0.9995438 0 0.0302031 -0.9995439 0 0.03020459 -0.9995437 0 0.03020501 -0.9995439 0 0.03020441 -0.9999997 0 8.75605e-4 -0.9999603 0.008918106 0 -0.9995439 0 0.03020358 -0.9995437 0 0.03020542 -0.9995438 0 0.03020441 -0.9995439 0 0.03020465 -0.9995437 0 0.03020572 -0.9995437 0 0.0302087 -0.9995437 0 0.03020554 -0.9995438 0 0.0302031 -0.9995439 0 0.03020465 -0.9995439 0 0.03020244 -0.9995439 0 0.03020161 -0.9999954 4.77183e-4 0.003015398 -0.9995439 0 0.03020465 -0.9995437 0 0.03020864 0.004332959 -0.007630288 -0.9999616 -0.006148219 0 -0.9999812 -6.50796e-4 -0.001144886 0.9999992 9.18459e-4 0 0.9999996 0.002050638 -0.9999811 -0.005794882 -0.002035617 -0.9999815 0.005752384 0.9995979 0 0.02835875 0.9997305 0.01232862 -0.01967054 -0.9998139 0 -0.01929259 -0.9998693 0.008563756 0.01372063 5.83443e-5 -2.03729e-4 -1 -3.70852e-5 -6.49908e-5 -1 -2.63759e-4 -9.22677e-4 0.9999996 3.72154e-4 0 1 0.002090632 -0.9999819 -0.005643248 -0.002086699 -0.999982 0.005632579 -0.003096759 0 -0.9999952 0.9998544 0 0.0170688 0.9997999 0.01587051 -0.01218694 -0.997637 -0.06463372 -0.02330487 -0.9907773 0.02172696 0.1337481 -0.17676 0.9842396 0.005316913 -0.1122496 -0.07885015 0.9905468 -0.9965834 0 0.08259409 -0.9957585 0.006187438 0.09179747 0.03925108 -0.06395059 -0.9971809 0.9993988 -0.02826172 0.02008408 0.9989789 -0.03406858 0.02967387 1 2.09469e-7 0 -1 0 1.53757e-6 -0.1282109 -0.99169 0.01062625 0.002815246 -0.9910875 -0.1331829 -3.39408e-7 -1 0 0.01982939 0.9963976 0.0824539 0.03543269 0.9993113 0.01103281 -0.02074569 0.99778 0.0632826 0.004359602 -0.9996622 -0.02562469 0 -0.99983 -0.01844286 0.9917079 -0.02804434 0.1254152 0.9992598 0 0.03847128 0.9810389 -0.1926932 0.02078801 0.1225547 0.07467824 0.9896482 -0.06997025 0 0.9975491 0.02112454 -0.8287352 0.5592421 0.002677321 0.03850102 0.9992551 -0.09521746 0 0.9954566 -0.5085194 -0.8609041 -0.0158801 -0.9930326 0.006170451 0.1176782 -0.9952037 0 0.09782546 -0.006039381 0.9996364 0.0262832 -0.03023797 0.9979875 0.05573815 0.0110464 0.9731948 0.2297169 1.66004e-7 -7.29937e-7 1 -1.32884e-7 0 1 5.31537e-7 0 1 -4.25229e-7 0 1 1.70807e-7 0 1 2.86103e-7 0 1 0 -4.36502e-7 1 -9.63287e-7 1.35289e-6 1 7.27209e-7 0 1 2.71616e-7 0 1 -4.5174e-7 0 1 0 0 1 0 0 1 6.82862e-4 -0.008736908 0.9999616 0 0.002704262 0.9999964 -8.35251e-4 0.00113964 0.9999991 -2.24585e-4 0.006332993 0.9999799 -0.01757216 -0.002825319 0.9998416 -0.01643031 0 0.9998651 -6.2193e-4 0.002996742 0.9999954 0.01017999 0 0.9999483 0.00136584 -0.007562279 0.9999706 -0.005700945 -0.02778583 0.9995977 -0.002570986 -0.01113831 0.9999347 -0.01018017 0 0.9999482 0.01311188 0.005698919 0.9998979 0.001255929 0.002119302 0.999997 0 0.00157231 0.9999988 0.001098334 0.001149356 0.9999988 0.005372822 0 0.9999856 0.0111916 0.005502939 0.9999223 -7.74421e-5 -0.01867401 0.9998256 0.02709352 0.009763896 0.9995853 0.008163154 0 0.9999668 -0.01069855 5.9106e-4 0.9999426 -0.002079784 -0.008489489 0.9999618 0.004501402 -0.01341629 0.9998999 -0.04489713 0 0.9989916 -0.01789593 -0.003367662 0.9998343 2.39611e-7 0 1 -1.09012e-4 5.11593e-5 1 -0.003211557 0 0.9999949 -0.003202676 0 0.9999949 -0.00321114 0 0.9999949 -0.003191947 0 0.9999949 -0.003223538 0 0.9999949 -0.003186345 0 0.999995 -0.003204047 0 0.9999949 -0.003198742 0 0.9999949 -0.003198802 0 0.9999949 -0.003210067 0 0.9999949 -0.003216147 0 0.9999948 -0.0032112 0 0.9999949 -0.003204047 0 0.9999949 -0.003216087 0 0.9999948 -0.003198742 0 0.9999949 -0.003204047 0 0.9999949 -0.003205001 0 0.9999949 -0.003201842 0 0.9999949 -0.003207087 0 0.9999949 -0.003204941 0 0.9999949 0 0 1 7.00518e-4 0 -0.9999998 -6.96629e-4 0 0.9999998 -6.97597e-4 0 0.9999998 -6.97054e-4 0 0.9999998 3.48314e-4 0 -1 -6.98568e-4 0 0.9999998 -4.0827e-4 -0.00589323 0.9999827 -0.01819157 0 0.9998346 -0.001634716 -0.00788486 0.9999676 0.003517329 0.01429319 0.9998918 0.004807591 0.01644575 0.9998533 0.001292049 0.001351654 0.9999983 0.002643227 0.008508324 0.9999603 2.90631e-4 -0.01829552 0.9998327 -0.00761485 -0.001775741 0.9999694 0 0 1 0 0 1 0.009027361 0.005895853 0.9999419 -0.001198291 3.37424e-4 0.9999992 -5.80708e-4 6.68002e-5 0.9999998 0.9528605 -0.05577319 0.2982387 0.03985434 -0.969179 0.2431128 -3.39189e-7 0 1 5.31535e-7 0 1 -4.25228e-7 0 1 2.71352e-7 0 1 2.71351e-7 0 1 0 -2.71924e-7 1 -7.18282e-7 0 1 0 0 1 4.76838e-7 0 1 -8.50456e-7 0 1 0 0 1 0 9.33759e-7 1 0 0 1 0.6466799 0.6910861 0.3228083 0.2184511 0.9423432 -0.2535121 -0.8407168 0.5058138 0.1932559 -0.9427786 0.3318951 -0.03184914 0.9386008 0.2729244 -0.2110466 0.3178372 0.8886449 0.33059 0.2350304 0.948404 0.2128157 -0.7111383 0.6718666 -0.2070692 0.6875541 0.7188295 -0.1027306 0.2150489 0.9242189 0.3155529 -0.2790106 0.9514935 -0.129666 -0.9918034 0.1276485 -0.00565046 0.94993 0.07090377 0.3043121 0.6833679 0.7144749 -0.1501135 -0.1860544 0.9685336 0.1653069 -0.3855084 0.9205815 -0.06255328 0.996433 0.08325111 0.01381355 0.9965038 0.08248746 0.01327544 0.9322332 0.3616694 0.01168787 0.9148938 0.4024101 0.03217655 0.8368241 0.5471964 -0.01736772 0.6785922 0.7341085 0.0244444 0.6474866 0.7605187 0.04870718 0.480519 0.8768719 -0.01404356 0.2547758 0.9667103 0.02367722 0.2228046 0.9738656 0.04409033 0.04385036 0.9989142 -0.01573622 -0.2120434 0.9770518 0.02018767 -0.2524118 0.9665493 0.04550713 -0.416775 0.9088891 -0.01481521 -0.6325908 0.7743034 0.01682943 -0.6704332 0.7404917 0.04681205 -0.7855408 0.6186558 -0.01381647 -0.8814023 0.4723377 0.005213022 -0.9359589 0.3465856 0.06212544 -0.9801689 0.1977452 -0.01287233 0.9959058 0.08603817 0.02773398 0.9812226 0.1924459 -0.01292312 0.7888602 0.6143221 -0.0175566 0.8724114 0.4873226 0.03761774 0.4983554 0.866849 -0.01466321 0.600434 0.7991338 0.02939867 0.05383664 0.9983506 -0.01994603 0.2153669 0.9757571 0.03892821 -0.2072291 0.9778698 0.02875304 -0.3315726 0.9432917 -0.01613837 -0.5647501 0.8243654 0.03846114 -0.7516515 0.6595115 -0.00805515 -0.7620134 0.6473523 -0.0164501 -0.8887801 0.4577211 0.02369707 -0.9809394 0.1923895 -0.02728343 -0.9925699 0.1216218 0.003666043 -0.4048376 0.1928797 0.8938143 -0.4680242 0.3859201 0.7949963 -0.2907671 0.3594906 0.886691 -0.2413322 0.5311457 0.8121841 -0.8888442 0.3083907 0.3388969 -0.6057859 0.4972675 0.6210866 -0.6153507 0.5362766 0.5777118 -0.4895054 0.7448935 0.4533411 -0.3308125 0.7280842 0.6003804 0.5467136 0.7340731 0.4027915 0.5826537 0.5306894 0.6155352 -0.0988059 0.008553504 0.99507 -0.7002328 0.0920552 0.7079548 -0.7364512 0.09714424 0.6694794 -0.8802112 0.3060893 0.3626815 -0.1919165 0.8959476 0.4005571 -0.08049756 0.4375995 0.8955595 0.00185126 0.193513 0.9810959 -0.003734171 0.7908124 0.6120472 0.2871917 0.3626176 0.886583 0.2309964 0.470051 0.851876 0.2781448 0.7220248 0.6334948 0.1859694 0.8376374 0.5135942 0.7474662 0.4121717 0.5209692 0.1499035 0.0999481 0.9836358 0.7230641 0.2766791 0.6329512 0.4964885 0.1386342 0.8569013 0.8995856 0.09923422 0.4253216 0.6095746 0.01201695 0.7926377 -0.001595795 -0.2982928 0.9544731 0.9823012 -0.1703706 0.07783478 0.8004108 -0.2926794 0.5231457 0.6780535 -0.6021473 0.4214999 0.583884 -0.6811829 0.4416666 0.3591802 -0.7923759 0.4930822 0.3339409 -0.8451238 0.417432 0.1844236 -0.8339632 0.5200898 -0.03226268 -0.978346 0.2044463 -0.183979 -0.8760893 0.4456673 -0.4390009 -0.7694044 0.4639993 -0.4786845 -0.7785344 0.4058884 -0.5696039 -0.638332 0.5177681 -0.7104771 -0.6049735 0.3594847 -0.7171553 -0.4699851 0.5145894 -0.8556588 -0.3312438 0.3976502 -0.8251775 -0.3404033 0.4507859 -0.8993037 -0.0738368 0.4310463 -0.839183 -0.1065558 0.5333085 0.8409033 -0.2818918 0.4619725 0.4234669 -0.2162083 0.8797327 0.5062484 -0.6628139 0.5517158 0.08158063 -0.699966 0.7095015 -0.2188119 -0.7253142 0.652718 0.3879024 -0.0976814 0.9165098 0.5071248 -0.1660798 0.8457199 0.2622027 -0.2487744 0.9323953 0.1959483 -0.4738025 0.8585543 0.1933132 -0.4546238 0.8694524 -0.01702308 -0.3657948 0.9305399 -0.006598174 -0.2848947 0.9585362 -0.2924299 -0.4756059 0.8296287 -0.2171609 -0.3948492 0.8927124 -0.362632 -0.3087829 0.8792902 -0.4064477 -0.3264729 0.8533557 -0.3842111 -0.1682449 0.907786 -0.752363 -0.09403896 0.652002 -0.4135635 -0.1045302 0.904455 -0.9997266 -0.004385888 0.02296918 -0.9997266 0.004385888 -0.02296918 0.9997267 -0.004385888 -0.02296918 0.9997266 0.004385888 0.02296918 6.25165e-5 0.9999954 0.003055036 2.94958e-4 0.9999814 -0.006116092 0.03800797 -0.9972676 -0.06334608 0 -1 3.60888e-6 0 -1 1.78172e-6 0 -1 1.03537e-6 -0.01809382 -0.9970692 0.07433497 0 0 1 3.23468e-7 0 1 0 0 1 -6.12449e-7 0 1 0 0 1 -3.23363e-7 0 1 -4.88913e-7 0 1 0 0 1 0 0 1 0 0 1 0 0 1 0 0 1 -2.37931e-7 0 1 0 0 1 0 0 1 0 0 1 0 0 1 0 0 1 0 0 1 -1.31971e-7 0 -1 2.58853e-7 0 -1 0 0 -1 0 0 -1 2.14484e-7 0 -1 0.9926401 0.098181 0.07089596 0.5813502 0.810559 -0.07089555 0.3068965 0.9507834 0.04272693 -0.6704707 0.7417426 -0.01694542 -0.6785024 0.7342658 -0.02209949 -0.954733 -0.2966421 0.0220983 -0.951516 -0.3071327 0.01694476 -0.09832012 -0.9940243 -0.04742282 0.1878735 -0.9780042 0.09061694 0.9522577 -0.2958689 -0.07527887 0.676356 0.731945 0.08245611 0.2957054 0.951714 -0.08245515 -0.5817381 0.8111065 0.06072318 -0.811104 0.5817413 -0.06072479 -0.9753619 -0.2092866 0.06977331 -0.7323957 -0.6767719 -0.07467472 -0.2199057 -0.9726588 0.07467514 0.3064294 -0.9493328 -0.0697745 0.9093528 -0.4115704 0.06072354 0.9933074 -0.09825026 -0.06072473 0.811104 0.5817413 0.06072479 0.5817381 0.8111065 -0.06072318 -0.2092932 0.9753606 0.06977212 -0.6767719 0.7323958 -0.07467395 -0.9726591 0.2199045 0.07467526 -0.9065717 -0.4103128 -0.09884911 -0.4103114 -0.9065722 0.09885162 0.2199057 -0.9726588 -0.07467597 0.7323957 -0.6767719 0.07467514 0.975362 -0.2092866 -0.06977307 0.6785011 0.7342644 -0.02218335 0.734264 0.6785016 0.02218335 -0.3068965 0.9507833 -0.04272717 -0.5813502 0.810559 0.07089596 -0.9926401 0.098181 -0.07089555 -0.9522577 -0.2958689 0.07527887 -0.2958696 -0.9522575 -0.07527905 0.0981847 -0.9926397 0.07089614 0.8105584 -0.5813509 -0.07089555 0.9507833 -0.3068967 0.04272818 -0.3226909 -0.9413427 -0.09871405 -0.5838913 -0.807001 0.08843278 -0.9222659 -0.3782001 -0.07994037 -0.9170023 -0.3948308 -0.05670487 -0.9406688 0.3358799 0.04823821 -0.9252279 0.3794118 0 -0.5903175 0.8071711 0 -0.5686116 0.8222216 -0.02515459 0.56861 0.8222226 0.02515327 0.5903175 0.8071711 0 0.9252281 0.3794114 0 0.940669 0.3358796 -0.0482378 0.9170023 -0.3948312 0.05670434 0.9222669 -0.3781979 0.07994002 0.5838913 -0.807001 -0.08843368 0.3226905 -0.9413428 0.09871518 -0.56861 -0.8222226 0.02515327 -0.5903175 -0.8071711 0 -0.9252281 -0.3794114 0 -0.940669 -0.3358796 -0.0482378 -0.9406687 0.3358802 0.04823857 -0.9252279 0.379412 0 -0.5873478 0.8093348 0 -0.5619454 0.8265521 -0.03207838 0.5634858 0.8255231 0.03155291 0.5888491 0.8082431 0 0.9252281 0.3794116 0 0.9406688 0.3358799 -0.04823857 0.9406688 -0.3358799 0.04823821 0.9252279 -0.3794118 0 0.5903175 -0.8071711 0 0.5686116 -0.8222216 -0.02515459 0.9492883 0.3064188 -0.07042396 0.7400068 0.6689024 0.07042437 0.2092838 0.9753156 -0.07042473 -0.2952483 0.950241 0.09935134 -0.7386462 0.6676673 -0.09285604 -0.9772699 -0.1877379 0.09847879 -0.9514099 -0.3070975 0.02259331 -0.2094668 -0.976157 -0.05693018 0.09799414 -0.9907052 0.094343 0.7400037 -0.6689057 -0.07042527 0.9492881 -0.3064191 0.07042407 0.9501672 0.2952149 0.1001523 0.1872757 0.9748961 -0.1204386 -0.1872757 0.9748961 0.1204389 -0.9501672 0.2952149 -0.1001526 -0.9907059 -0.09798818 0.09434193 -0.6689007 -0.7400085 -0.07042348 -0.3064153 -0.9492894 0.07042407 0.3064171 -0.9492887 -0.07042485 0.6689007 -0.7400085 0.07042306 0.9907052 -0.09799301 -0.09434306 0.7386462 0.6676673 0.09285604 0.2952483 0.950241 -0.09935075 -0.2092838 0.9753158 0.07042437 -0.7400068 0.6689023 -0.07042479 -0.9492883 0.3064188 0.07042396 -0.9492881 -0.3064191 -0.07042407 -0.7400037 -0.6689057 0.07042485 -0.09799414 -0.9907052 -0.094343 0.2094669 -0.9761571 0.0569297 0.9514099 -0.3070975 -0.02259331 0.9772699 -0.1877379 -0.09847879 0.9501672 0.2952149 0.1001526 -0.9501672 0.2952149 -0.1001523 -0.9907052 -0.09799301 0.09434306 -0.6689007 -0.7400085 -0.0704227 -0.3064171 -0.9492887 0.07042449 0.3064153 -0.9492893 -0.07042443 0.6689007 -0.7400085 0.07042348 0.9907059 -0.09798818 -0.09434193 0.9492881 0.3064191 -0.07042407 0.7400037 0.6689057 0.07042485 0.09799414 0.9907052 -0.094343 -0.2094669 0.9761571 0.0569297 -0.9514099 0.3070975 -0.02259254 -0.9772699 0.1877379 -0.09847909 -0.7386462 -0.6676673 0.09285604 -0.2952483 -0.9502409 -0.099352 0.2092838 -0.9753158 0.07042396 0.7400069 -0.6689025 -0.07042402 0.9492883 -0.3064188 0.07042396 0.9907052 0.09799301 0.09434306 0.6689007 0.7400085 -0.0704227 0.3064171 0.9492887 0.07042407 -0.3064153 0.9492893 -0.07042443 -0.6689007 0.7400085 0.07042348 -0.9907059 0.09798818 -0.09434193 -0.9501672 -0.2952149 0.100153 -0.1872757 -0.9748961 -0.1204386 0.1872757 -0.9748961 0.1204389 0.9501672 -0.2952149 -0.1001523 0.9772699 0.1877379 0.09847933 0.9514099 0.3070975 0.02259296 0.2094668 0.976157 -0.05693018 -0.09799414 0.9907052 0.094343 -0.7400037 0.6689057 -0.07042527 -0.9492881 0.3064191 0.07042407 -0.9492883 -0.3064188 -0.07042396 -0.7400069 -0.6689025 0.07042402 -0.2092838 -0.9753158 -0.07042318 0.2952483 -0.950241 0.09935134 0.7386462 -0.6676673 -0.09285604 0.9907059 0.09798818 0.09434193 0.6689007 0.7400085 -0.07042348 0.3064153 0.9492894 0.07042372 -0.3064171 0.9492887 -0.07042485 -0.6689007 0.7400085 0.07042306 -0.9907052 0.09799301 -0.09434306 -0.9501672 -0.2952149 0.1001526 0.9501672 -0.2952149 -0.100153 0.1054729 -0.9944022 0.00630474 0.108358 -0.994112 0 0.4133384 -0.9105776 0 0.3819603 -0.9221341 0.06144171 0.6507836 -0.7512327 -0.1101366 0.7512333 -0.6507833 0.1101356 0.9286144 -0.3640774 -0.0715745 0.920568 -0.3904169 -0.01137083 0.1336428 0.9910195 -0.004484295 0.108066 0.991437 -0.07331085 0.3814867 0.9209896 0.0790317 0.5866405 0.8030862 -0.1044304 0.654019 0.754969 0.04776149 0.9075612 0.4165876 -0.05279636 0.9205679 0.390417 0.01137089 -0.1054731 -0.9944022 -0.00630635 -0.108358 -0.994112 0 -0.4133384 -0.9105776 0 -0.3819603 -0.9221341 -0.06144171 -0.6507837 -0.7512326 0.1101366 -0.7512333 -0.6507833 -0.1101356 -0.9286146 -0.3640773 0.0715745 -0.9205679 -0.390417 0.01137089 -0.1336426 0.9910196 0.004484295 -0.1553828 0.9862869 -0.0556277 -0.5889385 0.8062334 0.05602842 -0.6263329 0.7775396 -0.05602908 -0.9075613 0.4165875 0.05279636 -0.9205679 0.390417 -0.01137089 0.4166508 -0.9081045 0.04181265 0.4567574 -0.8874588 -0.06156051 0.8251426 -0.5609547 0.06685429 0.8530389 -0.5175474 -0.06685459 0.9974293 -0.02579891 0.06685334 0.9974293 0.02579885 -0.06685328 0.8530389 0.5175474 0.06685411 0.8251426 0.5609547 -0.06685411 0.4567573 0.8874587 0.06156116 0.4101139 0.9102247 -0.05742478 0.006261646 -0.9991923 -0.03969347 0.001889705 -0.9999282 0.01183426 -0.4101139 0.9102247 0.05742478 -0.4567573 0.8874587 -0.06156116 -0.8251426 0.5609547 0.066854 -0.8530389 0.5175474 -0.06685411 -0.9974293 0.02579885 0.06685328 -0.9974293 -0.02579885 -0.06685328 -0.8530389 -0.5175474 0.06685459 -0.8251426 -0.5609547 -0.066854 -0.4476314 -0.8919163 0.0641213 -0.4104685 -0.911011 -0.03968089 -0.006249904 0.9973202 -0.07289379 0.006249904 0.9973202 0.07289379</float_array>
          <technique_common>
            <accessor source="#vim4_module-mesh-normals-array" count="878" stride="3">
              <param name="X" type="float"/>
              <param name="Y" type="float"/>
              <param name="Z" type="float"/>
            </accessor>
          </technique_common>
        </source>
        <vertices id="vim4_module-mesh-vertices">
          <input semantic="POSITION" source="#vim4_module-mesh-positions"/>
        </vertices>
        <triangles material="Material_001-material" count="2210">
          <input semantic="VERTEX" source="#vim4_module-mesh-vertices" offset="0"/>
          <input semantic="NORMAL" source="#vim4_module-mesh-normals" offset="1"/>
          <p>0 0 1 0 2 0 2 0 1 0 3 0 3 1 1 1 4 1 4 1 1 1 5 1 1 2 0 2 5 2 5 2 0 2 6 2 0 3 2 3 6 3 6 3 2 3 7 3 2 4 3 4 7 4 7 4 3 4 4 4 8 0 9 0 10 0 10 0 9 0 11 0 11 1 9 1 12 1 12 1 9 1 13 1 9 2 8 2 13 2 13 2 8 2 14 2 8 3 10 3 14 3 14 3 10 3 15 3 10 4 11 4 15 4 15 4 11 4 12 4 16 0 17 0 18 0 18 0 17 0 19 0 19 5 17 5 20 5 20 6 17 6 21 6 17 2 16 2 21 2 21 2 16 2 22 2 16 3 18 3 22 3 22 3 18 3 23 3 18 4 19 4 23 4 23 7 19 7 20 7 24 8 25 8 26 8 26 9 25 9 27 9 27 1 25 1 28 1 25 2 24 2 28 2 28 2 24 2 29 2 24 10 26 10 29 10 29 11 26 11 30 11 30 4 26 4 27 4 31 0 32 0 33 0 33 0 32 0 34 0 34 1 32 1 35 1 35 1 32 1 36 1 32 2 31 2 36 2 36 2 31 2 37 2 31 3 33 3 37 3 37 3 33 3 38 3 33 4 34 4 38 4 38 4 34 4 35 4 39 0 40 0 41 0 41 0 40 0 42 0 42 1 40 1 43 1 43 1 40 1 44 1 40 2 39 2 44 2 44 2 39 2 45 2 39 3 41 3 45 3 45 3 41 3 46 3 41 4 42 4 46 4 46 4 42 4 43 4 47 0 48 0 49 0 49 0 48 0 50 0 50 1 48 1 51 1 51 1 48 1 52 1 48 2 47 2 52 2 52 2 47 2 53 2 47 3 49 3 53 3 53 3 49 3 54 3 49 4 50 4 54 4 54 4 50 4 51 4 55 0 56 0 57 0 57 0 56 0 58 0 58 1 56 1 59 1 59 1 56 1 60 1 56 2 55 2 60 2 60 2 55 2 61 2 55 3 57 3 61 3 61 3 57 3 62 3 57 4 58 4 62 4 62 4 58 4 59 4 63 0 64 0 65 0 65 0 64 0 66 0 66 1 64 1 67 1 67 1 64 1 68 1 64 2 63 2 68 2 68 2 63 2 69 2 63 3 65 3 69 3 69 3 65 3 70 3 65 4 66 4 70 4 70 4 66 4 67 4 71 0 72 0 73 0 73 0 72 0 74 0 74 1 72 1 75 1 75 1 72 1 76 1 72 2 71 2 76 2 76 2 71 2 77 2 71 3 73 3 77 3 77 3 73 3 78 3 73 4 74 4 78 4 78 4 74 4 75 4 79 0 80 0 81 0 81 0 80 0 82 0 82 1 80 1 83 1 83 1 80 1 84 1 80 2 79 2 84 2 84 2 79 2 85 2 79 3 81 3 85 3 85 3 81 3 86 3 81 4 82 4 86 4 86 4 82 4 83 4 87 12 88 12 89 12 89 13 88 13 90 13 90 1 88 1 91 1 88 2 87 2 91 2 91 2 87 2 92 2 87 10 89 10 92 10 92 14 89 14 93 14 93 4 89 4 90 4 94 0 95 0 96 0 96 0 95 0 97 0 97 1 95 1 98 1 98 1 95 1 99 1 95 2 94 2 99 2 99 2 94 2 100 2 94 3 96 3 100 3 100 3 96 3 101 3 96 4 97 4 101 4 101 4 97 4 98 4 102 0 103 0 104 0 104 0 103 0 105 0 105 1 103 1 106 1 106 1 103 1 107 1 103 2 102 2 107 2 107 2 102 2 108 2 102 3 104 3 108 3 108 3 104 3 109 3 104 4 105 4 109 4 109 4 105 4 106 4 110 0 111 0 112 0 112 0 111 0 113 0 113 1 111 1 114 1 114 1 111 1 115 1 111 2 110 2 115 2 115 2 110 2 116 2 110 3 112 3 116 3 116 3 112 3 117 3 112 4 113 4 117 4 117 4 113 4 114 4 118 12 119 12 120 12 120 15 119 15 121 15 121 1 119 1 122 1 119 2 118 2 122 2 122 2 118 2 123 2 118 10 120 10 123 10 123 16 120 16 124 16 124 4 120 4 121 4 125 0 126 0 127 0 127 0 126 0 128 0 128 1 126 1 129 1 129 1 126 1 130 1 126 2 125 2 130 2 130 2 125 2 131 2 125 3 127 3 131 3 131 3 127 3 132 3 127 4 128 4 132 4 132 4 128 4 129 4 133 0 134 0 135 0 135 0 134 0 136 0 136 1 134 1 137 1 137 1 134 1 138 1 134 2 133 2 138 2 138 2 133 2 139 2 133 3 135 3 139 3 139 3 135 3 140 3 135 4 136 4 140 4 140 4 136 4 137 4 142 17 141 17 143 17 143 18 141 18 144 18 144 19 141 19 145 19 145 20 141 20 146 20 141 21 142 21 146 21 146 3 142 3 147 3 142 4 143 4 147 4 147 4 143 4 144 4 148 12 149 12 150 12 150 22 149 22 151 22 151 1 149 1 152 1 149 2 148 2 152 2 152 2 148 2 153 2 148 10 150 10 153 10 153 23 150 23 154 23 154 4 150 4 151 4 155 0 156 0 157 0 157 1 156 1 158 1 158 1 156 1 159 1 156 24 155 24 159 24 159 25 155 25 160 25 160 26 155 26 161 26 155 27 157 27 161 27 161 4 157 4 158 4 162 0 163 0 164 0 164 0 163 0 165 0 165 1 163 1 166 1 166 1 163 1 167 1 163 2 162 2 167 2 167 2 162 2 168 2 162 3 164 3 168 3 168 3 164 3 169 3 164 4 165 4 169 4 169 4 165 4 166 4 170 0 171 0 172 0 172 0 171 0 173 0 173 1 171 1 174 1 174 1 171 1 175 1 171 2 170 2 175 2 175 2 170 2 176 2 170 3 172 3 176 3 176 3 172 3 177 3 172 4 173 4 177 4 177 4 173 4 174 4 178 8 179 8 180 8 180 9 179 9 181 9 181 28 179 28 182 28 179 2 178 2 182 2 178 29 180 29 182 29 182 30 180 30 183 30 183 31 180 31 181 31 184 0 185 0 186 0 186 0 185 0 187 0 187 1 185 1 188 1 188 1 185 1 189 1 185 2 184 2 189 2 189 2 184 2 190 2 184 3 186 3 190 3 190 3 186 3 191 3 186 4 187 4 191 4 191 4 187 4 188 4 192 0 193 0 194 0 194 0 193 0 195 0 195 1 193 1 196 1 196 1 193 1 197 1 193 2 192 2 197 2 197 2 192 2 198 2 192 3 194 3 198 3 198 3 194 3 199 3 194 4 195 4 199 4 199 4 195 4 196 4 200 0 201 0 202 0 202 0 201 0 203 0 203 1 201 1 204 1 204 1 201 1 205 1 201 2 200 2 205 2 205 2 200 2 206 2 200 3 202 3 206 3 206 3 202 3 207 3 202 4 203 4 207 4 207 4 203 4 204 4 208 0 209 0 210 0 210 0 209 0 211 0 211 1 209 1 212 1 212 1 209 1 213 1 209 2 208 2 213 2 213 2 208 2 214 2 208 3 210 3 214 3 214 3 210 3 215 3 210 4 211 4 215 4 215 4 211 4 212 4 216 0 217 0 218 0 218 0 217 0 219 0 219 1 217 1 220 1 220 1 217 1 221 1 217 2 216 2 221 2 221 2 216 2 222 2 216 3 218 3 222 3 222 3 218 3 223 3 218 4 219 4 223 4 223 4 219 4 220 4 224 0 225 0 226 0 226 0 225 0 227 0 227 1 225 1 228 1 228 1 225 1 229 1 225 2 224 2 229 2 229 2 224 2 230 2 224 3 226 3 230 3 230 3 226 3 231 3 226 4 227 4 231 4 231 4 227 4 228 4 232 0 233 0 234 0 234 0 233 0 235 0 235 1 233 1 236 1 236 1 233 1 237 1 233 2 232 2 237 2 237 2 232 2 238 2 232 3 234 3 238 3 238 3 234 3 239 3 234 4 235 4 239 4 239 4 235 4 236 4 240 0 241 0 242 0 242 0 241 0 243 0 243 1 241 1 244 1 244 1 241 1 245 1 241 2 240 2 245 2 245 2 240 2 246 2 240 3 242 3 246 3 246 3 242 3 247 3 242 4 243 4 247 4 247 4 243 4 244 4 248 0 249 0 250 0 250 0 249 0 251 0 251 1 249 1 252 1 252 1 249 1 253 1 249 2 248 2 253 2 253 2 248 2 254 2 248 3 250 3 254 3 254 3 250 3 255 3 250 4 251 4 255 4 255 4 251 4 252 4 256 0 257 0 258 0 258 0 257 0 259 0 259 1 257 1 260 1 260 1 257 1 261 1 257 2 256 2 261 2 261 2 256 2 262 2 256 3 258 3 262 3 262 3 258 3 263 3 258 4 259 4 263 4 263 4 259 4 260 4 264 0 265 0 266 0 266 0 265 0 267 0 267 1 265 1 268 1 268 1 265 1 269 1 265 2 264 2 269 2 269 2 264 2 270 2 264 3 266 3 270 3 270 3 266 3 271 3 266 4 267 4 271 4 271 4 267 4 268 4 273 32 272 32 274 32 274 33 272 33 275 33 275 2 272 2 276 2 272 34 273 34 276 34 276 23 273 23 277 23 277 4 273 4 274 4 278 1 279 1 280 1 280 1 279 1 281 1 280 1 281 1 282 1 283 2 285 2 281 2 281 2 285 2 286 2 287 3 288 3 283 3 283 35 288 35 289 35 283 36 289 36 284 36 279 4 278 4 290 4 279 4 290 4 287 4 287 4 290 4 291 4 287 4 291 4 288 4 292 0 293 0 294 0 294 0 293 0 295 0 295 1 293 1 296 1 296 1 293 1 297 1 293 2 292 2 297 2 297 37 292 37 298 37 292 38 294 38 298 38 298 39 294 39 299 39 294 4 295 4 299 4 299 4 295 4 296 4 300 0 301 0 302 0 302 0 301 0 303 0 303 1 301 1 304 1 304 1 301 1 305 1 301 2 300 2 305 2 305 2 300 2 306 2 300 3 302 3 306 3 306 3 302 3 307 3 302 4 303 4 307 4 307 4 303 4 304 4 308 0 309 0 310 0 310 0 309 0 311 0 311 1 309 1 312 1 312 1 309 1 313 1 309 2 308 2 313 2 313 2 308 2 314 2 308 3 310 3 314 3 314 3 310 3 315 3 310 4 311 4 315 4 315 4 311 4 312 4 316 0 317 0 318 0 318 0 317 0 319 0 319 40 317 40 320 40 320 41 317 41 321 41 317 2 316 2 321 2 321 2 316 2 322 2 316 3 318 3 322 3 322 42 318 42 320 42 318 4 319 4 320 4 281 1 323 1 282 1 282 1 323 1 324 1 298 43 325 43 323 43 323 2 325 2 324 2 298 44 283 44 325 44 325 3 283 3 284 3 281 4 282 4 286 4 281 4 286 4 283 4 283 4 286 4 285 4 283 4 285 4 284 4 326 1 327 1 328 1 328 1 327 1 329 1 326 45 328 45 330 45 330 45 328 45 331 45 327 46 326 46 332 46 332 47 326 47 330 47 329 0 327 0 333 0 333 48 327 48 332 48 328 2 329 2 331 2 331 2 329 2 333 2 334 1 335 1 336 1 336 1 335 1 337 1 334 45 336 45 338 45 338 45 336 45 339 45 335 4 334 4 340 4 340 4 334 4 338 4 337 0 335 0 341 0 341 0 335 0 340 0 336 2 337 2 339 2 339 2 337 2 341 2 342 0 343 0 344 0 344 0 343 0 345 0 343 3 346 3 345 3 345 3 346 3 347 3 346 4 343 4 348 4 348 4 343 4 342 4 348 4 342 4 349 4 350 49 344 49 351 49 351 50 344 50 352 50 351 51 352 51 353 51 353 52 352 52 349 52 353 53 349 53 354 53 354 54 349 54 342 54 354 55 342 55 350 55 350 56 342 56 344 56 352 2 344 2 355 2 355 2 344 2 345 2 355 57 345 57 347 57 348 45 349 45 355 45 355 45 349 45 352 45 356 0 357 0 358 0 358 0 357 0 359 0 357 3 360 3 359 3 359 3 360 3 361 3 360 58 357 58 362 58 362 59 357 59 356 59 362 60 356 60 363 60 364 61 358 61 365 61 365 62 358 62 366 62 365 63 366 63 367 63 367 64 366 64 363 64 367 65 363 65 368 65 368 66 363 66 356 66 368 67 356 67 364 67 364 68 356 68 358 68 366 2 358 2 369 2 369 2 358 2 359 2 369 69 359 69 361 69 362 45 363 45 369 45 369 45 363 45 366 45 370 0 371 0 372 0 372 0 371 0 373 0 374 45 375 45 376 45 376 45 375 45 377 45 372 3 378 3 370 3 370 3 378 3 379 3 380 2 375 2 381 2 381 2 375 2 374 2 381 2 374 2 382 2 382 70 374 70 371 70 382 2 371 2 379 2 379 2 371 2 370 2 383 71 384 71 385 71 386 72 387 72 374 72 373 73 388 73 376 73 376 74 388 74 389 74 387 75 390 75 374 75 374 76 390 76 391 76 374 77 391 77 371 77 371 78 391 78 392 78 371 79 392 79 373 79 373 80 392 80 393 80 373 81 393 81 388 81 389 82 383 82 376 82 376 83 383 83 385 83 376 1 385 1 374 1 374 84 385 84 394 84 374 85 394 85 386 85 395 4 378 4 372 4 376 4 377 4 396 4 396 4 397 4 376 4 376 86 397 86 395 86 376 87 395 87 373 87 373 4 395 4 372 4 377 3 375 3 396 3 396 3 375 3 380 3 398 0 399 0 400 0 400 0 399 0 401 0 339 1 401 1 338 1 338 1 401 1 399 1 338 1 399 1 340 1 340 1 399 1 402 1 340 1 402 1 341 1 341 1 402 1 403 1 341 1 403 1 339 1 339 1 403 1 401 1 402 2 399 2 404 2 404 2 399 2 398 2 404 88 398 88 405 88 405 3 398 3 400 3 405 3 400 3 406 3 406 4 400 4 407 4 407 4 400 4 401 4 407 4 401 4 403 4 407 45 403 45 404 45 404 45 403 45 402 45 408 0 409 0 410 0 410 0 409 0 411 0 409 3 413 3 411 3 411 3 413 3 412 3 413 89 409 89 414 89 414 4 409 4 408 4 414 4 408 4 415 4 330 1 410 1 332 1 333 90 332 90 415 90 333 1 415 1 331 1 331 1 415 1 408 1 331 91 408 91 330 91 330 1 408 1 410 1 332 92 410 92 416 92 416 2 410 2 411 2 416 93 411 93 412 93 414 45 415 45 416 45 416 94 415 94 332 94 417 0 418 0 419 0 419 0 418 0 420 0 418 95 421 95 420 95 420 1 421 1 422 1 418 96 417 96 421 96 421 97 417 97 424 97 419 3 423 3 417 3 417 98 423 98 424 98 425 0 426 0 427 0 427 0 426 0 428 0 426 99 429 99 428 99 428 1 429 1 430 1 426 96 425 96 429 96 429 100 425 100 432 100 427 3 431 3 425 3 425 3 431 3 432 3 433 0 434 0 435 0 435 0 434 0 436 0 434 99 437 99 436 99 436 1 437 1 438 1 434 97 433 97 437 97 437 101 433 101 440 101 435 3 439 3 433 3 433 3 439 3 440 3 441 0 442 0 443 0 443 0 442 0 444 0 442 95 445 95 444 95 444 1 445 1 446 1 442 102 441 102 445 102 445 103 441 103 448 103 443 3 447 3 441 3 441 3 447 3 448 3 449 0 450 0 451 0 451 0 450 0 452 0 450 1 453 1 452 1 452 1 453 1 454 1 450 102 449 102 453 102 453 103 449 103 456 103 451 3 455 3 449 3 449 104 455 104 456 104 457 0 458 0 459 0 459 0 458 0 460 0 458 1 461 1 460 1 460 1 461 1 462 1 458 105 457 105 461 105 461 106 457 106 464 106 459 3 463 3 457 3 457 3 463 3 464 3 465 0 466 0 467 0 467 0 466 0 468 0 466 107 469 107 468 107 468 1 469 1 470 1 466 105 465 105 469 105 469 101 465 101 472 101 467 3 471 3 465 3 465 3 471 3 472 3 473 0 474 0 475 0 475 0 474 0 476 0 474 1 477 1 476 1 476 108 477 108 478 108 474 105 473 105 477 105 477 101 473 101 480 101 475 3 479 3 473 3 473 3 479 3 480 3 481 0 482 0 483 0 483 0 482 0 484 0 482 1 485 1 484 1 484 109 485 109 486 109 482 110 481 110 485 110 485 111 481 111 488 111 483 3 487 3 481 3 481 104 487 104 488 104 489 0 490 0 491 0 491 112 490 112 583 112 490 113 492 113 583 113 583 114 492 114 493 114 490 102 489 102 492 102 492 97 489 97 495 97 491 3 494 3 489 3 489 3 494 3 495 3 496 0 497 0 498 0 498 0 497 0 499 0 497 115 500 115 499 115 499 1 500 1 501 1 497 102 496 102 500 102 500 97 496 97 503 97 498 3 502 3 496 3 496 3 502 3 503 3 504 0 505 0 506 0 506 0 505 0 507 0 505 1 508 1 507 1 507 1 508 1 509 1 505 97 504 97 508 97 508 101 504 101 511 101 506 3 510 3 504 3 504 3 510 3 511 3 512 0 513 0 514 0 514 0 513 0 515 0 513 116 516 116 515 116 515 1 516 1 517 1 513 100 512 100 516 100 516 97 512 97 519 97 514 3 518 3 512 3 512 3 518 3 519 3 520 0 521 0 522 0 522 0 521 0 523 0 521 1 524 1 523 1 523 1 524 1 525 1 521 97 520 97 524 97 524 101 520 101 527 101 522 117 526 117 520 117 520 3 526 3 527 3 528 0 529 0 530 0 530 0 529 0 531 0 529 1 532 1 531 1 531 1 532 1 533 1 529 97 528 97 532 97 532 101 528 101 535 101 530 3 534 3 528 3 528 3 534 3 535 3 536 0 537 0 538 0 538 0 537 0 539 0 537 1 540 1 539 1 539 1 540 1 541 1 537 118 536 118 540 118 540 119 536 119 543 119 538 3 542 3 536 3 536 3 542 3 543 3 544 0 545 0 546 0 546 0 545 0 547 0 545 1 548 1 547 1 547 1 548 1 549 1 545 118 544 118 548 118 548 119 544 119 551 119 546 3 550 3 544 3 544 120 550 120 551 120 552 0 553 0 554 0 554 0 553 0 555 0 553 1 556 1 555 1 555 1 556 1 557 1 553 118 552 118 556 118 556 119 552 119 559 119 554 3 558 3 552 3 552 3 558 3 559 3 560 121 561 121 562 121 561 122 563 122 576 122 576 123 575 123 584 123 584 124 575 124 573 124 584 125 573 125 574 125 584 126 574 126 585 126 585 127 574 127 572 127 585 128 572 128 586 128 586 129 572 129 571 129 586 130 571 130 587 130 587 131 571 131 569 131 587 132 569 132 570 132 587 133 570 133 588 133 588 134 570 134 568 134 568 135 567 135 589 135 589 136 567 136 566 136 589 137 566 137 590 137 590 138 566 138 565 138 590 139 565 139 591 139 591 140 565 140 564 140 562 141 561 141 576 141 562 142 576 142 584 142 588 143 568 143 589 143 560 144 562 144 579 144 579 145 562 145 584 145 579 146 584 146 585 146 579 147 585 147 578 147 578 148 585 148 586 148 578 149 586 149 577 149 577 150 586 150 587 150 577 151 587 151 580 151 580 152 587 152 588 152 580 153 588 153 589 153 580 154 589 154 581 154 581 155 589 155 590 155 581 156 590 156 582 156 582 157 590 157 591 157 582 158 591 158 583 158 583 159 591 159 592 159 597 160 599 160 600 160 601 161 598 161 602 161 597 162 600 162 603 162 603 163 600 163 601 163 603 164 601 164 604 164 596 165 597 165 606 165 606 166 597 166 603 166 606 167 603 167 607 167 607 168 603 168 594 168 594 169 603 169 604 169 610 170 609 170 608 170 598 171 611 171 608 171 608 172 611 172 612 172 608 173 612 173 610 173 599 174 597 174 613 174 613 175 597 175 596 175 595 176 596 176 606 176 605 177 594 177 604 177 600 178 598 178 601 178 604 179 601 179 602 179 604 180 602 180 605 180 598 181 608 181 602 181 602 182 608 182 609 182 602 183 609 183 605 183 593 184 610 184 612 184 614 185 593 185 612 185 614 186 612 186 611 186 611 187 615 187 614 187 593 188 614 188 616 188 599 189 617 189 618 189 599 190 611 190 600 190 611 191 599 191 618 191 600 192 611 192 598 192 617 193 619 193 618 193 616 194 620 194 593 194 593 195 620 195 621 195 622 196 610 196 621 196 621 197 610 197 593 197 623 198 609 198 622 198 622 199 609 199 610 199 624 200 605 200 623 200 623 201 605 201 609 201 605 202 624 202 594 202 594 203 624 203 625 203 594 204 625 204 607 204 607 205 625 205 606 205 606 206 625 206 626 206 606 207 626 207 595 207 595 208 626 208 627 208 595 209 627 209 596 209 625 210 628 210 626 210 626 211 628 211 629 211 626 212 629 212 627 212 627 213 629 213 630 213 630 214 629 214 631 214 631 215 632 215 630 215 630 216 632 216 633 216 633 217 632 217 634 217 633 218 634 218 635 218 635 219 634 219 636 219 635 220 636 220 637 220 637 221 636 221 638 221 638 222 636 222 639 222 621 223 640 223 622 223 622 224 640 224 641 224 622 225 641 225 623 225 623 226 641 226 642 226 623 227 642 227 624 227 624 228 642 228 625 228 625 229 642 229 643 229 625 230 643 230 628 230 638 231 639 231 644 231 638 232 644 232 645 232 645 233 644 233 646 233 645 234 646 234 620 234 620 235 646 235 621 235 621 236 646 236 647 236 621 237 647 237 640 237 648 238 631 238 629 238 648 239 629 239 563 239 631 240 648 240 649 240 631 241 649 241 632 241 650 242 632 242 649 242 632 243 650 243 651 243 632 244 651 244 634 244 652 245 634 245 651 245 634 246 652 246 653 246 634 247 653 247 636 247 654 248 636 248 653 248 636 249 654 249 655 249 636 250 655 250 639 250 656 251 639 251 655 251 639 252 656 252 657 252 639 253 657 253 644 253 658 254 644 254 657 254 644 255 658 255 815 255 644 256 815 256 646 256 564 257 646 257 815 257 560 258 579 258 659 258 659 259 579 259 578 259 659 260 578 260 577 260 662 261 663 261 664 261 664 262 663 262 661 262 661 3 663 3 660 3 663 263 662 263 665 263 665 264 560 264 663 264 663 265 560 265 666 265 666 266 560 266 659 266 666 267 659 267 577 267 666 268 577 268 667 268 667 269 577 269 668 269 695 270 669 270 673 270 673 271 669 271 670 271 673 272 670 272 674 272 674 273 670 273 671 273 674 274 671 274 672 274 700 275 675 275 678 275 678 276 675 276 679 276 679 277 675 277 676 277 679 278 676 278 701 278 701 279 676 279 677 279 684 280 680 280 685 280 685 281 680 281 681 281 685 282 681 282 682 282 685 283 682 283 686 283 686 284 682 284 683 284 690 285 687 285 691 285 691 286 687 286 688 286 691 287 688 287 689 287 691 288 689 288 692 288 692 289 689 289 744 289 691 290 380 290 690 290 691 291 686 291 684 291 693 292 694 292 695 292 696 293 685 293 697 293 686 294 691 294 697 294 697 295 691 295 692 295 697 296 692 296 698 296 692 297 699 297 698 297 698 298 699 298 381 298 700 299 693 299 397 299 700 300 397 300 701 300 685 301 686 301 697 301 381 302 699 302 380 302 380 303 699 303 690 303 693 304 700 304 694 304 396 305 679 305 701 305 396 306 701 306 397 306 693 307 695 307 696 307 695 308 673 308 696 308 696 309 673 309 674 309 700 310 678 310 694 310 694 311 678 311 679 311 694 312 679 312 396 312 694 313 396 313 674 313 674 314 396 314 380 314 674 315 380 315 684 315 684 316 380 316 691 316 674 317 684 317 685 317 674 318 685 318 696 318 381 1 382 1 348 1 381 1 348 1 355 1 369 319 698 319 362 319 362 1 698 1 381 1 362 320 381 320 355 320 369 321 414 321 698 321 698 322 414 322 416 322 698 1 416 1 702 1 702 2 697 2 698 2 697 2 702 2 703 2 697 3 703 3 704 3 704 323 289 323 697 323 697 324 289 324 705 324 697 325 705 325 706 325 706 326 707 326 697 326 697 327 707 327 708 327 697 3 708 3 696 3 696 328 708 328 709 328 696 329 709 329 710 329 710 3 711 3 696 3 696 3 711 3 712 3 696 4 712 4 713 4 696 4 713 4 714 4 696 4 714 4 693 4 693 4 714 4 715 4 665 330 662 330 716 330 560 331 665 331 717 331 665 332 716 332 717 332 718 333 661 333 583 333 661 334 718 334 719 334 661 335 719 335 664 335 580 336 668 336 577 336 668 337 580 337 581 337 583 338 668 338 582 338 581 339 582 339 668 339 661 2 660 2 558 2 558 2 554 2 661 2 661 2 554 2 555 2 661 340 555 340 583 340 547 2 549 2 542 2 538 341 539 341 583 341 557 2 550 2 555 2 555 2 550 2 546 2 555 342 546 342 583 342 583 343 546 343 547 343 583 342 547 342 538 342 538 2 547 2 542 2 531 2 533 2 526 2 522 344 523 344 583 344 526 2 522 2 531 2 531 345 522 345 583 345 531 346 583 346 530 346 530 347 583 347 539 347 530 2 539 2 534 2 534 2 539 2 541 2 515 2 517 2 510 2 506 348 507 348 583 348 510 2 506 2 515 2 515 349 506 349 583 349 515 346 583 346 514 346 514 350 583 350 523 350 514 2 523 2 518 2 518 2 523 2 525 2 499 2 501 2 494 2 509 2 502 2 507 2 507 2 502 2 498 2 507 351 498 351 583 351 583 352 498 352 499 352 583 353 499 353 491 353 491 2 499 2 494 2 493 354 487 354 583 354 583 355 487 355 483 355 583 352 483 352 484 352 452 2 454 2 447 2 436 2 438 2 431 2 486 2 479 2 484 2 484 2 479 2 475 2 484 349 475 349 583 349 583 356 475 356 476 356 430 2 423 2 428 2 428 2 423 2 419 2 478 2 471 2 476 2 476 2 471 2 467 2 476 357 467 357 583 357 583 358 467 358 468 358 470 2 463 2 468 2 468 2 463 2 459 2 468 359 459 359 583 359 583 360 459 360 460 360 443 361 444 361 583 361 447 2 443 2 452 2 452 359 443 359 583 359 452 362 583 362 451 362 451 363 583 363 460 363 451 2 460 2 455 2 455 2 460 2 462 2 431 2 427 2 436 2 436 364 427 364 583 364 436 365 583 365 435 365 435 366 583 366 444 366 435 2 444 2 439 2 439 2 444 2 446 2 422 2 667 2 420 2 420 2 667 2 668 2 420 2 668 2 419 2 419 367 668 367 583 367 419 368 583 368 428 368 428 369 583 369 427 369 715 1 407 1 693 1 693 322 407 322 404 322 693 1 404 1 397 1 397 1 404 1 395 1 720 370 721 370 364 370 364 371 721 371 368 371 722 372 723 372 367 372 367 373 723 373 365 373 720 374 723 374 721 374 721 375 723 375 722 375 723 376 720 376 365 376 365 377 720 377 364 377 721 378 722 378 368 378 368 379 722 379 367 379 724 380 725 380 350 380 350 381 725 381 354 381 726 382 727 382 353 382 353 383 727 383 351 383 724 384 727 384 725 384 725 385 727 385 726 385 354 386 725 386 728 386 727 387 724 387 351 387 351 388 724 388 350 388 725 389 726 389 728 389 728 390 726 390 353 390 354 391 728 391 353 391 729 392 730 392 385 392 385 0 730 0 394 0 731 393 732 393 393 393 393 394 732 394 388 394 733 395 731 395 392 395 392 45 731 45 393 45 734 396 733 396 391 396 391 397 733 397 392 397 386 398 394 398 735 398 735 4 394 4 730 4 384 399 729 399 385 399 736 400 732 400 731 400 736 401 731 401 733 401 730 402 729 402 735 402 387 403 386 403 737 403 387 404 737 404 390 404 390 405 737 405 391 405 733 406 738 406 736 406 736 407 738 407 739 407 391 408 737 408 734 408 734 409 737 409 738 409 734 410 738 410 733 410 384 411 740 411 729 411 729 412 740 412 739 412 729 413 739 413 735 413 735 0 739 0 738 0 735 414 738 414 386 414 386 415 738 415 737 415 732 416 736 416 739 416 732 417 739 417 388 417 388 418 739 418 740 418 389 419 388 419 383 419 383 420 388 420 740 420 383 421 740 421 384 421 298 422 299 422 283 422 315 423 312 423 281 423 281 0 312 0 313 0 281 0 313 0 323 0 296 0 305 0 299 0 299 0 305 0 306 0 299 0 306 0 283 0 283 0 306 0 307 0 283 424 307 424 304 424 281 0 283 0 315 0 315 425 283 425 304 425 315 0 304 0 314 0 314 426 304 426 320 426 314 427 320 427 313 427 313 428 320 428 323 428 323 429 320 429 321 429 323 0 321 0 322 0 298 430 323 430 297 430 297 431 323 431 322 431 297 0 322 0 296 0 296 432 322 432 320 432 296 433 320 433 305 433 305 434 320 434 304 434 558 0 742 0 559 0 360 0 362 0 347 0 360 0 347 0 361 0 413 435 689 435 688 435 414 436 369 436 743 436 347 437 688 437 687 437 347 438 687 438 361 438 361 439 687 439 743 439 361 440 743 440 369 440 743 441 744 441 414 441 414 442 744 442 413 442 413 443 744 443 689 443 688 444 347 444 413 444 676 445 675 445 405 445 405 446 675 446 404 446 404 447 675 447 745 447 404 448 745 448 746 448 404 449 746 449 395 449 395 450 746 450 677 450 395 451 677 451 378 451 378 452 677 452 676 452 407 0 715 0 406 0 406 0 715 0 714 0 406 0 714 0 405 0 405 453 378 453 676 453 348 0 382 0 346 0 346 0 382 0 379 0 346 0 379 0 667 0 355 0 347 0 362 0 683 454 703 454 747 454 747 455 703 455 702 455 747 456 702 456 748 456 703 457 683 457 682 457 325 458 682 458 681 458 680 459 324 459 325 459 680 460 325 460 681 460 412 461 421 461 424 461 412 462 424 462 748 462 748 463 424 463 429 463 748 464 429 464 432 464 445 465 448 465 748 465 440 466 445 466 748 466 440 467 748 467 437 467 437 466 748 466 432 466 461 468 464 468 748 468 456 469 461 469 748 469 456 470 748 470 453 470 453 469 748 469 448 469 477 471 480 471 748 471 472 472 477 472 748 472 472 470 748 470 469 470 469 473 748 473 464 473 492 474 495 474 748 474 488 475 492 475 748 475 488 471 748 471 485 471 485 476 748 476 480 476 508 477 511 477 748 477 503 478 508 478 748 478 503 474 748 474 500 474 500 475 748 475 495 475 524 479 527 479 748 479 519 475 524 475 748 475 519 479 748 479 516 479 516 475 748 475 511 475 540 480 543 480 748 480 535 481 540 481 748 481 535 482 748 482 532 482 532 478 748 478 527 478 551 478 556 478 748 478 551 482 748 482 548 482 548 478 748 478 543 478 421 0 412 0 413 0 421 0 413 0 347 0 421 0 347 0 422 0 422 0 347 0 667 0 347 0 346 0 667 0 667 0 379 0 378 0 667 483 378 483 405 483 663 0 750 0 751 0 752 0 660 0 753 0 558 0 754 0 755 0 556 0 551 0 550 0 556 0 550 0 557 0 548 0 543 0 542 0 548 0 542 0 549 0 540 0 535 0 534 0 540 0 534 0 541 0 532 0 527 0 526 0 532 0 526 0 533 0 524 0 519 0 518 0 524 0 518 0 525 0 516 0 511 0 510 0 516 0 510 0 517 0 508 0 503 0 502 0 508 0 502 0 509 0 500 0 495 0 494 0 500 0 494 0 501 0 492 0 488 0 487 0 492 0 487 0 493 0 485 0 480 0 479 0 485 0 479 0 486 0 477 0 472 0 471 0 477 0 471 0 478 0 469 0 464 0 463 0 469 0 463 0 470 0 461 0 456 0 455 0 461 0 455 0 462 0 453 0 448 0 447 0 453 0 447 0 454 0 445 0 440 0 439 0 445 0 439 0 446 0 437 0 432 0 431 0 437 0 431 0 438 0 429 0 424 0 423 0 429 0 423 0 430 0 284 0 704 0 325 0 325 0 704 0 703 0 324 0 559 0 756 0 324 0 756 0 282 0 282 484 286 484 756 484 282 0 756 0 280 0 280 0 756 0 559 0 280 0 559 0 278 0 288 0 757 0 705 0 284 0 285 0 704 0 704 0 284 0 289 0 705 0 289 0 288 0 758 0 706 0 757 0 757 0 706 0 705 0 759 0 705 0 757 0 760 0 761 0 742 0 278 0 559 0 761 0 761 0 559 0 742 0 761 485 742 485 762 485 742 0 558 0 755 0 742 0 755 0 760 0 760 485 755 485 763 485 764 0 707 0 758 0 758 0 707 0 706 0 765 0 706 0 758 0 766 0 708 0 764 0 764 0 708 0 707 0 764 45 707 45 767 45 768 0 769 0 754 0 760 0 755 0 769 0 769 0 755 0 754 0 769 486 754 486 770 486 558 0 660 0 754 0 754 0 660 0 752 0 754 0 752 0 768 0 768 487 752 487 771 487 772 0 709 0 766 0 766 0 709 0 708 0 766 45 708 45 773 45 774 0 710 0 772 0 772 0 710 0 709 0 772 45 709 45 775 45 776 0 777 0 753 0 768 0 752 0 777 0 777 0 752 0 753 0 778 488 753 488 777 488 660 0 663 0 753 0 753 0 663 0 751 0 753 0 751 0 776 0 776 489 751 489 779 489 780 0 711 0 774 0 774 0 711 0 710 0 781 0 710 0 774 0 741 0 712 0 780 0 780 0 712 0 711 0 780 45 711 45 782 45 663 0 749 0 750 0 750 0 749 0 783 0 776 0 751 0 783 0 783 0 751 0 750 0 783 485 750 485 784 485 325 490 703 490 682 490 669 491 713 491 712 491 669 492 712 492 670 492 713 493 669 493 785 493 713 494 785 494 741 494 741 495 785 495 672 495 741 496 672 496 671 496 741 497 671 497 712 497 712 498 671 498 670 498 741 499 749 499 713 499 713 500 749 500 663 500 713 0 663 0 714 0 714 0 663 0 666 0 714 0 666 0 405 0 405 0 666 0 667 0 680 501 748 501 324 501 324 502 748 502 559 502 559 482 748 482 556 482 748 503 702 503 412 503 412 0 702 0 416 0 786 4 762 4 787 4 787 4 762 4 759 4 787 4 759 4 757 4 287 3 787 3 288 3 288 3 787 3 757 3 287 2 291 2 279 2 279 2 291 2 290 2 786 1 279 1 761 1 761 1 279 1 278 1 788 4 763 4 789 4 789 4 763 4 765 4 787 3 789 3 757 3 757 3 789 3 758 3 787 2 759 2 786 2 786 2 759 2 762 2 786 2 762 2 761 2 788 1 786 1 760 1 760 1 786 1 761 1 790 4 770 4 791 4 791 4 770 4 767 4 791 4 767 4 764 4 789 3 791 3 758 3 758 3 791 3 764 3 789 2 758 2 765 2 789 2 765 2 788 2 788 2 765 2 763 2 788 2 763 2 760 2 790 1 788 1 769 1 769 1 788 1 760 1 792 4 768 4 771 4 792 4 771 4 793 4 793 4 771 4 773 4 793 4 773 4 766 4 791 3 793 3 764 3 764 3 793 3 766 3 791 2 767 2 790 2 790 2 767 2 770 2 790 2 770 2 769 2 792 1 790 1 768 1 768 1 790 1 769 1 794 4 778 4 795 4 795 4 778 4 775 4 793 3 795 3 766 3 766 3 795 3 772 3 793 2 773 2 792 2 792 2 773 2 771 2 794 1 792 1 777 1 777 1 792 1 768 1 796 4 779 4 797 4 797 4 779 4 781 4 797 4 781 4 774 4 795 3 797 3 772 3 772 3 797 3 774 3 795 2 772 2 775 2 795 2 775 2 794 2 794 2 775 2 778 2 794 2 778 2 777 2 796 1 794 1 776 1 776 1 794 1 777 1 798 4 784 4 799 4 799 4 784 4 782 4 799 4 782 4 780 4 797 3 799 3 774 3 774 3 799 3 780 3 797 2 781 2 796 2 796 2 781 2 779 2 796 2 779 2 776 2 798 1 796 1 783 1 783 1 796 1 776 1 20 504 749 504 800 504 800 4 749 4 741 4 799 3 800 3 780 3 780 3 800 3 741 3 799 2 782 2 798 2 798 2 782 2 784 2 798 2 784 2 783 2 20 505 798 505 749 505 749 1 798 1 783 1 253 506 254 506 283 506 283 0 254 0 255 0 283 0 255 0 287 0 271 423 268 423 279 423 279 0 268 0 269 0 279 0 269 0 281 0 252 0 261 0 255 0 255 0 261 0 262 0 255 0 262 0 287 0 287 0 262 0 263 0 287 507 263 507 260 507 279 0 287 0 271 0 271 508 287 508 260 508 271 0 260 0 270 0 270 0 260 0 277 0 270 0 277 0 269 0 269 0 277 0 274 0 269 0 274 0 281 0 281 0 274 0 275 0 281 0 275 0 276 0 283 0 281 0 253 0 253 509 281 509 276 509 253 0 276 0 252 0 252 0 276 0 277 0 252 0 277 0 261 0 261 0 277 0 260 0 221 506 222 506 287 506 287 0 222 0 223 0 287 0 223 0 787 0 239 423 236 423 786 423 786 0 236 0 237 0 786 0 237 0 279 0 220 0 229 0 223 0 223 0 229 0 230 0 223 0 230 0 787 0 787 0 230 0 231 0 787 424 231 424 228 424 786 0 787 0 239 0 239 425 787 425 228 425 239 0 228 0 238 0 238 0 228 0 247 0 238 0 247 0 237 0 237 0 247 0 244 0 237 0 244 0 279 0 279 0 244 0 245 0 279 0 245 0 246 0 287 0 279 0 221 0 221 509 279 509 246 509 221 0 246 0 220 0 220 0 246 0 247 0 220 0 247 0 229 0 229 0 247 0 228 0 189 506 190 506 787 506 787 0 190 0 191 0 787 0 191 0 789 0 207 423 204 423 788 423 788 0 204 0 205 0 788 0 205 0 786 0 188 0 197 0 191 0 191 0 197 0 198 0 191 0 198 0 789 0 789 0 198 0 199 0 789 424 199 424 196 424 788 0 789 0 207 0 207 425 789 425 196 425 207 0 196 0 206 0 206 0 196 0 215 0 206 0 215 0 205 0 205 0 215 0 212 0 205 0 212 0 786 0 786 0 212 0 213 0 786 0 213 0 214 0 787 0 786 0 189 0 189 510 786 510 214 510 189 0 214 0 188 0 188 0 214 0 215 0 188 0 215 0 197 0 197 0 215 0 196 0 159 506 160 506 789 506 789 0 160 0 161 0 789 0 161 0 791 0 177 423 174 423 790 423 790 0 174 0 175 0 790 0 175 0 788 0 158 0 167 0 161 0 161 0 167 0 168 0 161 0 168 0 791 0 791 0 168 0 169 0 791 507 169 507 166 507 790 0 791 0 177 0 177 508 791 508 166 508 177 0 166 0 176 0 176 0 166 0 183 0 176 0 183 0 175 0 175 0 183 0 181 0 175 0 181 0 788 0 788 511 181 511 182 511 789 0 788 0 159 0 159 512 788 512 182 512 159 513 182 513 158 513 158 514 182 514 183 514 158 0 183 0 167 0 167 0 183 0 166 0 130 506 131 506 791 506 791 0 131 0 132 0 791 0 132 0 793 0 147 423 144 423 792 423 792 0 144 0 145 0 792 0 145 0 790 0 129 0 138 0 132 0 132 0 138 0 139 0 132 0 139 0 793 0 793 0 139 0 140 0 793 424 140 424 137 424 792 0 793 0 147 0 147 425 793 425 137 425 147 0 137 0 146 0 146 0 137 0 154 0 146 0 154 0 145 0 145 0 154 0 151 0 145 0 151 0 790 0 790 0 151 0 152 0 790 0 152 0 153 0 791 0 790 0 130 0 130 509 790 509 153 509 130 0 153 0 129 0 129 0 153 0 154 0 129 0 154 0 138 0 138 0 154 0 137 0 99 506 100 506 793 506 793 0 100 0 101 0 793 0 101 0 795 0 117 423 114 423 794 423 794 0 114 0 115 0 794 0 115 0 792 0 98 0 107 0 101 0 101 0 107 0 108 0 101 0 108 0 795 0 795 0 108 0 109 0 795 424 109 424 106 424 794 0 795 0 117 0 117 425 795 425 106 425 117 0 106 0 116 0 116 0 106 0 124 0 116 0 124 0 115 0 115 0 124 0 121 0 115 0 121 0 792 0 792 0 121 0 122 0 792 0 122 0 123 0 793 0 792 0 99 0 99 510 792 510 123 510 99 0 123 0 98 0 98 0 123 0 124 0 98 0 124 0 107 0 107 0 124 0 106 0 68 506 69 506 795 506 795 0 69 0 70 0 795 0 70 0 797 0 86 423 83 423 796 423 796 0 83 0 84 0 796 0 84 0 794 0 67 0 76 0 70 0 70 0 76 0 77 0 70 0 77 0 797 0 797 0 77 0 78 0 797 507 78 507 75 507 85 0 93 0 84 0 84 0 93 0 90 0 84 0 90 0 794 0 794 0 90 0 91 0 794 0 91 0 92 0 795 0 794 0 68 0 68 510 794 510 92 510 68 0 92 0 67 0 67 0 92 0 93 0 67 0 93 0 76 0 76 0 93 0 85 0 76 0 85 0 75 0 75 0 85 0 86 0 75 515 86 515 797 515 797 516 86 516 796 516 36 506 37 506 797 506 797 0 37 0 38 0 797 0 38 0 799 0 54 423 51 423 798 423 798 0 51 0 52 0 798 0 52 0 796 0 35 0 44 0 38 0 38 0 44 0 45 0 38 0 45 0 799 0 799 0 45 0 46 0 799 424 46 424 43 424 798 0 799 0 54 0 54 425 799 425 43 425 54 0 43 0 53 0 53 0 43 0 62 0 53 0 62 0 52 0 52 0 62 0 59 0 52 0 59 0 796 0 796 0 59 0 60 0 796 0 60 0 61 0 797 0 796 0 36 0 36 509 796 509 61 509 36 0 61 0 35 0 35 0 61 0 62 0 35 0 62 0 44 0 44 0 62 0 43 0 5 506 6 506 799 506 799 0 6 0 7 0 799 0 7 0 800 0 20 517 21 517 798 517 4 0 13 0 7 0 7 0 13 0 14 0 7 0 14 0 800 0 800 0 14 0 15 0 800 424 15 424 12 424 20 518 800 518 23 518 23 425 800 425 12 425 23 0 12 0 22 0 22 0 12 0 30 0 22 0 30 0 21 0 21 0 30 0 27 0 21 0 27 0 798 0 798 0 27 0 28 0 798 0 28 0 29 0 799 0 798 0 5 0 5 510 798 510 29 510 5 0 29 0 4 0 4 0 29 0 30 0 4 0 30 0 13 0 13 0 30 0 12 0 692 519 744 519 699 519 699 520 744 520 743 520 699 521 743 521 690 521 690 522 743 522 687 522 686 523 683 523 747 523 686 524 747 524 684 524 684 525 747 525 748 525 684 526 748 526 680 526 701 527 677 527 746 527 701 528 746 528 700 528 700 529 746 529 745 529 700 530 745 530 675 530 674 531 672 531 694 531 694 532 672 532 785 532 694 533 785 533 695 533 695 534 785 534 669 534 565 535 647 535 646 535 565 536 646 536 564 536 647 537 565 537 566 537 647 538 566 538 640 538 567 539 640 539 566 539 640 540 567 540 568 540 640 541 568 541 641 541 570 542 641 542 568 542 641 543 570 543 569 543 641 544 569 544 642 544 571 545 642 545 569 545 642 546 571 546 572 546 642 547 572 547 643 547 574 548 643 548 572 548 643 549 574 549 573 549 643 550 573 550 628 550 575 551 628 551 573 551 628 552 575 552 576 552 628 553 576 553 629 553 563 554 629 554 576 554 596 555 627 555 801 555 801 556 627 556 630 556 633 557 802 557 630 557 630 558 802 558 801 558 635 559 803 559 633 559 633 560 803 560 802 560 637 561 804 561 635 561 635 562 804 562 803 562 804 563 637 563 805 563 805 564 637 564 638 564 805 565 638 565 806 565 806 566 638 566 807 566 807 567 638 567 645 567 807 568 645 568 808 568 808 569 645 569 620 569 808 570 620 570 616 570 809 571 615 571 618 571 809 572 618 572 811 572 811 573 618 573 619 573 811 574 619 574 812 574 616 575 809 575 807 575 807 576 809 576 811 576 807 577 811 577 806 577 806 578 811 578 805 578 805 579 811 579 812 579 802 580 803 580 813 580 813 581 814 581 802 581 611 582 618 582 615 582 614 583 615 583 809 583 614 584 809 584 616 584 808 585 616 585 807 585 804 586 805 586 812 586 810 587 812 587 619 587 619 588 617 588 810 588 812 589 810 589 804 589 617 590 814 590 813 590 617 591 813 591 810 591 810 592 813 592 803 592 810 593 803 593 804 593 801 594 802 594 814 594 599 595 814 595 617 595 613 596 801 596 814 596 613 597 814 597 599 597 801 598 613 598 596 598 592 599 591 599 815 599 664 600 816 600 662 600 591 601 564 601 815 601 815 602 658 602 817 602 817 603 658 603 657 603 657 604 656 604 818 604 818 605 656 605 655 605 818 606 655 606 819 606 819 607 655 607 654 607 819 608 654 608 653 608 653 609 652 609 820 609 820 610 652 610 651 610 820 611 651 611 821 611 821 612 651 612 650 612 821 613 650 613 822 613 822 614 650 614 649 614 822 615 649 615 648 615 822 616 648 616 823 616 823 617 648 617 563 617 823 618 563 618 561 618 592 619 815 619 817 619 817 620 657 620 718 620 718 621 657 621 818 621 819 622 653 622 816 622 816 623 653 623 820 623 583 624 592 624 817 624 583 625 817 625 718 625 718 626 818 626 719 626 719 627 818 627 819 627 719 628 819 628 664 628 664 629 819 629 816 629 816 630 820 630 662 630 662 631 820 631 821 631 662 632 821 632 716 632 716 633 821 633 822 633 716 634 822 634 717 634 717 635 822 635 823 635 717 636 823 636 561 636 717 637 561 637 560 637 824 638 825 638 826 638 826 639 825 639 827 639 828 640 829 640 830 640 830 641 829 641 831 641 832 642 833 642 834 642 832 643 834 643 835 643 836 644 837 644 838 644 838 1 837 1 839 1 839 645 837 645 840 645 839 1 840 1 841 1 839 1 841 1 842 1 842 646 841 646 843 646 842 647 843 647 844 647 844 648 843 648 845 648 937 0 843 0 841 0 847 0 848 0 849 0 850 0 851 0 852 0 856 649 829 649 857 649 860 0 861 0 862 0 862 0 864 0 860 0 859 650 865 650 863 650 863 0 865 0 866 0 866 0 865 0 864 0 859 0 834 0 861 0 868 0 867 0 869 0 868 0 869 0 870 0 870 0 869 0 871 0 870 0 871 0 863 0 863 0 871 0 872 0 863 651 872 651 859 651 859 0 872 0 858 0 834 0 859 0 858 0 834 0 858 0 867 0 834 0 867 0 873 0 873 0 867 0 874 0 874 0 867 0 868 0 828 652 875 652 864 652 864 653 875 653 866 653 857 0 855 0 856 0 876 0 877 0 855 0 879 0 876 0 855 0 879 0 855 0 878 0 878 0 855 0 880 0 837 0 881 0 855 0 855 654 881 654 880 654 878 0 882 0 879 0 879 0 882 0 883 0 883 0 882 0 884 0 883 0 884 0 837 0 837 0 884 0 881 0 885 0 886 0 887 0 854 0 887 0 886 0 854 0 888 0 843 0 887 0 889 0 885 0 885 0 889 0 890 0 885 0 890 0 845 0 885 0 845 0 891 0 891 0 845 0 843 0 891 0 843 0 888 0 892 0 887 0 854 0 892 0 854 0 853 0 893 0 827 0 894 0 827 655 893 655 826 655 826 0 893 0 895 0 826 0 895 0 896 0 896 656 895 656 897 656 900 0 901 0 895 0 895 657 901 657 897 657 900 0 902 0 901 0 901 0 902 0 852 0 852 0 902 0 850 0 898 0 899 0 895 0 895 0 899 0 900 0 901 0 852 0 905 0 904 0 903 0 906 0 904 0 906 0 907 0 907 0 906 0 908 0 907 0 908 0 905 0 905 0 908 0 901 0 833 0 909 0 903 0 904 0 910 0 903 0 903 0 910 0 833 0 833 0 910 0 852 0 833 0 851 0 898 0 851 0 833 0 852 0 848 0 912 0 893 0 893 0 912 0 913 0 893 0 913 0 914 0 893 658 914 658 895 658 895 0 914 0 911 0 915 0 916 0 857 0 857 0 916 0 847 0 917 0 918 0 919 0 919 659 918 659 920 659 911 0 921 0 895 0 895 660 921 660 919 660 919 0 921 0 917 0 922 0 923 0 893 0 922 0 854 0 924 0 893 0 894 0 853 0 893 0 853 0 854 0 893 0 854 0 922 0 924 0 854 0 843 0 924 0 843 0 925 0 893 661 923 661 926 661 893 662 926 662 843 662 843 0 926 0 925 0 937 0 841 0 849 0 849 0 841 0 840 0 849 0 840 0 927 0 929 0 855 0 930 0 930 0 855 0 857 0 930 0 857 0 928 0 928 0 857 0 931 0 931 0 857 0 840 0 837 0 932 0 840 0 840 0 932 0 931 0 855 0 929 0 933 0 855 663 933 663 837 663 837 0 933 0 932 0 893 0 843 0 937 0 937 0 846 0 893 0 893 0 846 0 934 0 893 0 934 0 849 0 893 0 849 0 848 0 934 0 935 0 849 0 849 0 935 0 936 0 936 0 937 0 849 0 857 0 847 0 849 0 857 0 849 0 938 0 938 0 939 0 857 0 857 0 939 0 927 0 927 0 939 0 940 0 941 0 849 0 927 0 941 0 927 0 940 0 941 0 942 0 849 0 849 0 942 0 938 0 898 0 943 0 944 0 943 0 898 0 895 0 898 0 944 0 947 0 898 0 947 0 946 0 946 0 947 0 945 0 833 0 948 0 949 0 945 0 895 0 946 0 946 0 895 0 919 0 833 0 919 0 948 0 864 0 919 0 828 0 828 664 919 664 920 664 828 665 920 665 829 665 829 666 920 666 915 666 829 667 915 667 857 667 857 0 927 0 840 0 833 0 949 0 862 0 862 0 950 0 864 0 864 0 950 0 919 0 861 0 834 0 862 0 862 0 834 0 833 0 919 0 833 0 946 0 946 0 833 0 898 0 952 45 953 45 954 45 955 45 956 45 957 45 960 45 961 45 962 45 964 45 965 45 966 45 964 668 966 668 825 668 964 45 825 45 967 45 967 669 825 669 824 669 969 45 965 45 970 45 970 45 965 45 844 45 969 45 971 45 965 45 965 45 971 45 972 45 965 45 972 45 968 45 972 45 971 45 973 45 972 45 973 45 974 45 974 45 973 45 975 45 970 45 844 45 975 45 975 45 844 45 976 45 975 45 976 45 974 45 983 45 977 45 978 45 979 45 980 45 978 45 979 45 978 45 977 45 979 45 981 45 980 45 980 45 981 45 838 45 981 45 982 45 838 45 838 45 982 45 836 45 836 45 982 45 983 45 836 45 983 45 984 45 983 45 978 45 984 45 984 45 978 45 985 45 980 45 986 45 978 45 831 670 987 670 988 670 988 45 987 45 989 45 989 45 980 45 988 45 963 45 830 45 990 45 990 45 830 45 831 45 991 45 992 45 993 45 830 45 963 45 993 45 830 45 993 45 994 45 994 45 993 45 992 45 995 45 996 45 993 45 996 45 997 45 993 45 993 45 997 45 991 45 997 45 998 45 991 45 991 45 998 45 962 45 962 45 998 45 960 45 991 45 962 45 999 45 958 45 1000 45 1001 45 1000 45 1002 45 1003 45 1003 45 1002 45 1004 45 1003 45 1004 45 999 45 999 45 1004 45 991 45 1000 45 958 45 1002 45 959 45 958 45 835 45 835 45 958 45 1001 45 835 45 1001 45 962 45 1005 45 832 45 1006 45 1006 45 832 45 1007 45 1006 45 1007 45 1008 45 1008 45 1009 45 1010 45 1010 45 1009 45 1011 45 1010 45 1011 45 1012 45 1012 45 1011 45 1013 45 1012 45 1013 45 1005 45 1005 45 1013 45 1014 45 1005 45 1014 45 1015 45 1005 45 1015 45 832 45 1007 45 1009 45 1008 45 1007 45 1016 45 1009 45 1009 45 1016 45 1017 45 1017 45 1016 45 1018 45 957 45 1018 45 955 45 824 45 1019 45 1018 45 1018 45 1019 45 1017 45 961 45 835 45 962 45 832 45 956 45 1007 45 963 45 1020 45 993 45 1020 45 1021 45 993 45 993 45 1021 45 1022 45 988 45 953 45 1023 45 990 45 831 45 988 45 990 671 988 671 1023 671 1025 45 1026 45 964 45 964 45 1026 45 952 45 1022 45 1021 45 1027 45 1022 45 1027 45 967 45 967 45 1027 45 1024 45 1024 45 1028 45 967 45 967 45 1028 45 964 45 964 672 1028 672 1025 672 961 45 995 45 835 45 835 45 995 45 832 45 824 45 1018 45 967 45 1022 45 1029 45 1030 45 957 45 1031 45 1018 45 1018 45 1031 45 967 45 1030 45 957 45 1022 45 1022 45 957 45 832 45 832 45 957 45 956 45 832 45 993 45 1022 45 1022 45 967 45 1029 45 1032 45 1033 45 993 45 993 45 1033 45 995 45 995 45 1033 45 1034 45 1035 45 832 45 995 45 1035 45 995 45 1034 45 1035 45 1036 45 832 45 832 45 1036 45 993 45 993 45 1036 45 1032 45 964 45 1042 45 1037 45 1038 45 1037 45 1039 45 1040 45 954 45 1038 45 1040 45 1038 45 1039 45 1040 45 1041 45 954 45 954 45 1041 45 1042 45 964 45 952 45 954 45 964 45 954 45 1042 45 964 45 1037 45 1038 45 951 45 1043 45 988 45 988 45 1043 45 954 45 988 45 954 45 953 45 1043 45 1044 45 954 45 954 45 1044 45 1045 45 1045 45 1046 45 954 45 1047 45 1048 45 964 45 844 45 1049 45 842 45 842 45 1049 45 1047 45 1050 45 965 45 1051 45 1051 45 965 45 964 45 1051 45 964 45 1048 45 965 45 1050 45 1052 45 965 45 1052 45 844 45 844 45 1052 45 1049 45 842 45 1047 45 964 45 842 45 964 45 1038 45 842 45 1038 45 839 45 839 45 1038 45 954 45 839 45 954 45 1046 45 1053 45 1054 45 988 45 1054 45 1055 45 839 45 839 45 1055 45 838 45 1055 45 1056 45 838 45 838 45 1056 45 980 45 980 45 1056 45 1057 45 980 45 1057 45 988 45 988 45 1057 45 1053 45 951 45 988 45 1046 45 1046 45 988 45 839 45 839 45 988 45 1054 45 1037 673 846 673 1039 673 1039 674 846 674 937 674 1039 675 937 675 1040 675 1040 676 937 676 1041 676 1041 677 937 677 936 677 1041 678 936 678 1042 678 1042 679 936 679 935 679 1042 680 935 680 934 680 1042 681 934 681 1037 681 1037 682 934 682 846 682 1031 683 943 683 967 683 967 684 943 684 895 684 967 685 895 685 1029 685 1029 686 895 686 945 686 1029 687 945 687 1030 687 1030 688 945 688 947 688 1030 689 947 689 957 689 957 690 947 690 944 690 957 691 944 691 1031 691 1031 692 944 692 943 692 1036 693 948 693 1032 693 1032 694 948 694 919 694 1032 695 919 695 1033 695 1033 696 919 696 950 696 1033 697 950 697 1034 697 1034 698 950 698 862 698 1034 699 862 699 1035 699 1035 700 862 700 949 700 1035 701 949 701 1036 701 1036 702 949 702 948 702 1045 703 942 703 1046 703 1046 704 942 704 941 704 1046 705 941 705 940 705 1046 706 940 706 951 706 951 707 940 707 939 707 951 708 939 708 1043 708 1043 709 939 709 938 709 1043 710 938 710 1044 710 1044 711 938 711 942 711 1044 712 942 712 1045 712 844 713 845 713 976 713 976 714 845 714 890 714 976 715 890 715 889 715 976 716 889 716 974 716 974 717 889 717 887 717 974 718 887 718 972 718 972 719 887 719 892 719 972 720 892 720 968 720 986 721 877 721 876 721 986 722 876 722 978 722 978 723 876 723 879 723 978 724 879 724 985 724 985 725 879 725 883 725 985 726 883 726 984 726 984 727 883 727 836 727 836 728 883 728 837 728 1011 729 908 729 906 729 1011 730 906 730 1013 730 1013 731 906 731 903 731 1013 732 903 732 1014 732 1014 733 903 733 909 733 1014 734 909 734 1015 734 1015 735 909 735 833 735 1015 736 833 736 832 736 835 737 834 737 873 737 835 738 873 738 959 738 959 739 873 739 874 739 959 740 874 740 958 740 958 741 874 741 868 741 958 742 868 742 1002 742 1002 743 868 743 870 743 1002 744 870 744 1004 744 1054 745 928 745 931 745 1054 746 931 746 1055 746 1055 747 931 747 932 747 1055 748 932 748 1056 748 1056 749 932 749 933 749 1056 750 933 750 1057 750 1057 751 933 751 929 751 1057 752 929 752 930 752 1057 753 930 753 1053 753 1053 754 930 754 928 754 1053 755 928 755 1054 755 981 756 881 756 982 756 982 757 881 757 884 757 982 758 884 758 983 758 983 759 884 759 882 759 983 760 882 760 977 760 977 761 882 761 878 761 977 762 878 762 979 762 979 763 878 763 880 763 979 764 880 764 981 764 981 765 880 765 881 765 1052 766 924 766 1049 766 1049 767 924 767 925 767 1049 768 925 768 1047 768 1047 769 925 769 926 769 1047 770 926 770 1048 770 1048 771 926 771 923 771 1048 772 923 772 1051 772 1051 773 923 773 922 773 1051 774 922 774 1050 774 1050 775 922 775 1052 775 1052 776 922 776 924 776 973 777 885 777 975 777 975 757 885 757 891 757 975 758 891 758 970 758 970 778 891 778 888 778 970 779 888 779 969 779 969 780 888 780 854 780 969 781 854 781 971 781 971 782 854 782 886 782 971 783 886 783 973 783 973 784 886 784 885 784 996 785 860 785 864 785 996 786 864 786 997 786 997 787 864 787 865 787 997 788 865 788 998 788 998 789 865 789 960 789 960 790 865 790 859 790 960 791 859 791 961 791 961 792 859 792 861 792 961 793 861 793 995 793 995 794 861 794 860 794 995 795 860 795 996 795 962 796 872 796 999 796 999 797 872 797 871 797 999 798 871 798 1003 798 1003 799 871 799 869 799 1003 800 869 800 1000 800 1000 801 869 801 867 801 1000 802 867 802 1001 802 1001 803 867 803 858 803 1001 804 858 804 962 804 962 805 858 805 872 805 1007 806 850 806 1016 806 1016 807 850 807 902 807 1016 808 902 808 900 808 1016 809 900 809 1018 809 1018 810 900 810 899 810 1018 811 899 811 955 811 955 812 899 812 898 812 955 813 898 813 956 813 956 814 898 814 851 814 956 815 851 815 1007 815 1007 816 851 816 850 816 1005 817 904 817 1012 817 1012 818 904 818 907 818 1012 819 907 819 1010 819 1010 820 907 820 905 820 1010 821 905 821 1008 821 1008 822 905 822 852 822 1008 823 852 823 1006 823 1006 803 852 803 910 803 1006 804 910 804 1005 804 1005 824 910 824 904 824 1004 825 870 825 991 825 991 826 870 826 863 826 991 827 863 827 992 827 992 828 863 828 866 828 992 829 866 829 875 829 992 830 875 830 994 830 994 831 875 831 830 831 830 832 875 832 828 832 877 833 986 833 855 833 855 834 986 834 980 834 855 835 980 835 989 835 855 836 989 836 856 836 856 837 989 837 987 837 856 838 987 838 829 838 829 839 987 839 831 839 908 840 1011 840 901 840 901 841 1011 841 1009 841 901 842 1009 842 897 842 897 843 1009 843 1017 843 897 844 1017 844 1019 844 897 845 1019 845 896 845 896 846 1019 846 826 846 826 847 1019 847 824 847 968 848 892 848 965 848 965 849 892 849 853 849 965 850 853 850 966 850 966 851 853 851 894 851 966 852 894 852 825 852 825 853 894 853 827 853 1027 854 921 854 1024 854 1024 855 921 855 911 855 1024 856 911 856 1028 856 1028 857 911 857 914 857 1028 858 914 858 1025 858 1025 859 914 859 913 859 1025 860 913 860 1026 860 1026 861 913 861 912 861 1026 862 912 862 952 862 952 863 912 863 848 863 921 864 1027 864 917 864 917 865 1027 865 1021 865 953 866 847 866 1023 866 1023 867 847 867 916 867 1023 868 916 868 990 868 990 869 916 869 915 869 990 870 915 870 963 870 963 871 915 871 920 871 963 872 920 872 1020 872 1020 873 920 873 918 873 1020 874 918 874 1021 874 1021 875 918 875 917 875 847 876 953 876 848 876 848 877 953 877 952 877</p>
        </triangles>
      </mesh>
    </geometry>
  </library_geometries>
  <library_visual_scenes>
    <visual_scene id="Scene" name="Scene">
      <node id="vim4_module" name="vim4_module" type="NODE">
        <matrix sid="transform">-0.001 0 -8.74228e-11 0 0 0.001 0 0 8.74228e-11 0 -0.001 0 0 0 0 1</matrix>
        <instance_geometry url="#vim4_module-mesh" name="vim4_module">
          <bind_material>
            <technique_common>
              <instance_material symbol="Material_001-material" target="#Material_001-material"/>
            </technique_common>
          </bind_material>
        </instance_geometry>
      </node>
      <node id="Camera" name="Camera" type="NODE">
        <matrix sid="transform">0.6859207 -0.3240135 0.6515582 7.358891 0.7276763 0.3054208 -0.6141704 -6.925791 0 0.8953956 0.4452714 4.958309 0 0 0 1</matrix>
        <instance_camera url="#Camera-camera"/>
      </node>
      <node id="Light" name="Light" type="NODE">
        <matrix sid="transform">-0.2908646 -0.7711008 0.5663932 4.076245 0.9551712 -0.1998834 0.2183912 1.005454 -0.05518906 0.6045247 0.7946723 5.903862 0 0 0 1</matrix>
        <instance_light url="#Light-light"/>
      </node>
    </visual_scene>
  </library_visual_scenes>
  <scene>
    <instance_visual_scene url="#Scene"/>
  </scene>
</COLLADA>